<?xml version="1.0" encoding="UTF-8"?>
<svg id="Camada_2" data-name="Camada 2" xmlns="http://www.w3.org/2000/svg" viewBox="0 0 222.61 282.24">
<defs>
    <style>
      g {
        fill: #6C619E;
      }
    </style>
  </defs>
  <g id="Camada_5" data-name="Camada 5">
    <path d="m176.44,229.26c0-4.09-.96-7.47-2.89-10.16-1.93-2.68-4.54-4.7-7.83-6.04-3.3-1.34-7.05-2.01-11.28-2.01h-18.55v-3.57h18.55c4.22,0,7.98-.61,11.28-1.83,3.29-1.22,5.9-3.11,7.83-5.67,1.93-2.56,2.89-5.89,2.89-9.98h4.33v39.26h-4.33Z"/>
    <path d="m32.95,74.23v-2.29h27.46c5.86,0,10.83-1.31,14.92-3.93,4.09-2.62,7.21-6.45,9.38-11.49,2.17-5.04,3.25-11.18,3.25-18.41s-1.08-13.4-3.25-18.51c-2.17-5.11-5.29-9.01-9.38-11.69-4.09-2.69-9.06-4.03-14.92-4.03H0V0h60.4c9.21,0,17.25,1.38,24.12,4.13,6.86,2.75,12.19,6.95,15.97,12.59,3.78,5.64,5.67,12.77,5.67,21.39s-1.77,15.59-5.31,20.9c-3.54,5.31-8.71,9.17-15.51,11.59-6.8,2.42-15.12,3.63-24.94,3.63h-27.46Z"/>
    <rect x="23.61" y="2" width="17.5" height="139"/>
    <path d="m218.28,239.87c0,7.97-1.2,14.85-3.6,20.62-2.4,5.78-6.49,10.23-12.25,13.37-5.77,3.14-13.71,4.71-23.84,4.71h-35.37v-133.9h37.7c8.65,0,15.54,1.51,20.68,4.52,5.14,3.01,8.83,7.16,11.09,12.43,2.25,5.27,3.38,11.27,3.38,17.98h4.32v-38.61h-98.28v140.99l100.5.25v-42.37h-4.32Z"/>
    <polygon points="73.27 282.07 23.61 141 40.76 141 82.11 257.1 120.79 141 124.54 141 77.65 282.07 73.27 282.07"/>
    <path d="m121.29,136.43c.73-.56,1.4-1.29,1.4-1.29.39-.43.7-.83.92-1.14l1,7c-2.3.09-4,0-7,0h-9.84c-5.31,0-9.44-.92-12.4-2.75-2.96-1.84-5.11-4.31-6.45-7.43-1.34-3.12-2.18-6.61-2.52-10.49-.34-3.87-.54-7.88-.6-12.02-.06-4.14-.31-8.14-.73-12.02-.43-3.88-1.37-7.37-2.84-10.49-1.46-3.12-3.8-5.59-7-7.43s-7.61-2.75-13.22-2.75h-26.54v-1.84h30.2c8.72,0,15.66,1.15,20.82,3.45,5.16,2.3,9.04,5.33,11.67,9.09,2.62,3.76,4.39,7.88,5.31,12.37.92,4.49,1.42,8.99,1.51,13.51.13,6.32-.02,7.43.46,12.41.48,4.93.74,7.42,2.01,9.05,3.95,5.03,12.44,3.85,13.84,2.78Z"/>
    <polyline points="200.29 141 220.33 141 173.11 0 169.35 0 162.22 20.96"/>
    <rect x="23.61" y="141" width="3.92" height="141"/>
    <path d="m186.55,89.95h-31.36s-18.01.87-26.3,15.32c-8.29,14.45-8.29,35.72-8.29,35.72l4.08.04s-1.95-46.84,33.14-47.9h29.78v-3.19h-1.06Z"/>
  </g>
</svg>