<?xml version="1.0" encoding="UTF-8"?>
<svg id="Camada_2" data-name="Camada 2" xmlns="http://www.w3.org/2000/svg" viewBox="0 0 1245.33 651.79">
  <defs>
    <style>
      .cls-1 {
        fill: #8f8f8f;
      }

      .cls-2 {
        fill: #7a7a7a;
      }

      .cls-2, .cls-3 {
        fill-rule: evenodd;
      }

      .cls-3 {
        fill: #5c5c5c;
      }
    </style>
    <style>
      @keyframes movimento-cssEhtml {
        to {
          transform: translate(12px, 18px);
        }
      }

      @keyframes movimento-psEai {
        to {
          transform: translate(-12px, 4px);
        }
      }

      @keyframes movimento-jsEpb {
        to {
          transform: translate(8px, -16px);
        }
      }

      @keyframes fundo-colorido {
        to {
          filter: drop-shadow(0px 0px 40px #5d4caa);
        }
      }

      #PBI-Logo, #PBI-Logo-2, #PBI-Logo-3, #PBI-Logo-4, #PBI-Logo-5, #PBI-Logo-6, #js, #js-2, #js-3, #js-4, #js-5, #js-6{
        animation: movimento-jsEpb 2.5s ease-in-out infinite alternate, fundo-colorido 2s ease-in-out infinite alternate;
      }
      #html, #html-2, #html-3, #html-4, #html-5, #html-6, #css, #css-2, #css-3, #css-4, #css-5, #css-6, #css-7 {
        animation: movimento-cssEhtml 2.5s ease-in-out infinite alternate, fundo-colorido 1.5s ease-in-out infinite alternate;
      }
      #ai, #ai-2, #ai-3, #ai-4, #ai-5, #ai-6, #ps, #ps-2, #ps-3, #ps-4, #ps-5, #ps-6 {
        animation: movimento-psEai 2.5s ease-in-out infinite alternate, fundo-colorido 1s ease-in-out infinite alternate;
      }
    </style>
  </defs>
  <g id="logos">
    <g id="PBI-Logo">
      <rect id="Rectangle" class="cls-1" x="44.22" y="3.18" width="13.29" height="38.22" rx="1.58" ry="1.58"/>
      <path id="path-3" class="cls-2" d="m49.68,39.82v1.58h-11.71c-.87,0-1.58-.71-1.58-1.58V14.29c0-.87.71-1.58,1.58-1.58h10.13c.87,0,1.58.71,1.58,1.58v25.54Z"/>
      <path id="Combined-Shape" class="cls-3" d="m41.97,39.82v1.58h-11.71c-.87,0-1.58-.71-1.58-1.58v-15.95c0-.87.71-1.58,1.58-1.58h10.13c.87,0,1.58.71,1.58,1.58v15.95Z"/>
    </g>
    <g id="PBI-Logo-2" data-name="PBI-Logo">
      <rect id="Rectangle-2" data-name="Rectangle" class="cls-1" x="936.42" y="25.09" width="13.29" height="38.22" rx="1.58" ry="1.58"/>
      <path id="path-3-2" data-name="path-3" class="cls-2" d="m941.88,61.73v1.58h-11.71c-.87,0-1.58-.71-1.58-1.58v-25.54c0-.87.71-1.58,1.58-1.58h10.13c.87,0,1.58.71,1.58,1.58v25.54Z"/>
      <path id="Combined-Shape-2" data-name="Combined-Shape" class="cls-3" d="m934.18,61.73v1.58h-11.71c-.87,0-1.58-.71-1.58-1.58v-15.95c0-.87.71-1.58,1.58-1.58h10.13c.87,0,1.58.71,1.58,1.58v15.95Z"/>
    </g>
    <g id="PBI-Logo-3" data-name="PBI-Logo">
      <rect id="Rectangle-3" data-name="Rectangle" class="cls-1" x="1215.58" y="124.67" width="13.29" height="38.22" rx="1.58" ry="1.58"/>
      <path id="path-3-3" data-name="path-3" class="cls-2" d="m1221.04,161.32v1.58h-11.71c-.87,0-1.58-.71-1.58-1.58v-25.54c0-.87.71-1.58,1.58-1.58h10.13c.87,0,1.58.71,1.58,1.58v25.54Z"/>
      <path id="Combined-Shape-3" data-name="Combined-Shape" class="cls-3" d="m1213.33,161.32v1.58h-11.71c-.87,0-1.58-.71-1.58-1.58v-15.95c0-.87.71-1.58,1.58-1.58h10.13c.87,0,1.58.71,1.58,1.58v15.95Z"/>
    </g>
    <g id="PBI-Logo-4" data-name="PBI-Logo">
      <rect id="Rectangle-4" data-name="Rectangle" class="cls-1" x="1052.81" y="496.08" width="6.72" height="19.32" rx=".8" ry=".8"/>
      <path id="path-3-4" data-name="path-3" class="cls-2" d="m1055.57,514.6v.8h-5.92c-.44,0-.8-.36-.8-.8v-12.91c0-.44.36-.8.8-.8h5.12c.44,0,.8.36.8.8v12.91Z"/>
      <path id="Combined-Shape-4" data-name="Combined-Shape" class="cls-3" d="m1051.68,514.6v.8h-5.92c-.44,0-.8-.36-.8-.8v-8.07c0-.44.36-.8.8-.8h5.12c.44,0,.8.36.8.8v8.07Z"/>
    </g>
    <g id="PBI-Logo-5" data-name="PBI-Logo">
      <rect id="Rectangle-5" data-name="Rectangle" class="cls-1" x="553.85" y="43.75" width="13.29" height="38.22" rx="1.58" ry="1.58"/>
      <path id="path-3-5" data-name="path-3" class="cls-2" d="m559.31,80.39v1.58h-11.71c-.87,0-1.58-.71-1.58-1.58v-25.54c0-.87.71-1.58,1.58-1.58h10.13c.87,0,1.58.71,1.58,1.58v25.54Z"/>
      <path id="Combined-Shape-5" data-name="Combined-Shape" class="cls-3" d="m551.6,80.39v1.58h-11.71c-.87,0-1.58-.71-1.58-1.58v-15.95c0-.87.71-1.58,1.58-1.58h10.13c.87,0,1.58.71,1.58,1.58v15.95Z"/>
    </g>
    <g id="PBI-Logo-6" data-name="PBI-Logo">
      <rect id="Rectangle-6" data-name="Rectangle" class="cls-1" x="122.32" y="391.83" width="13.29" height="38.22" rx="1.58" ry="1.58"/>
      <path id="path-3-6" data-name="path-3" class="cls-2" d="m127.78,428.47v1.58h-11.71c-.87,0-1.58-.71-1.58-1.58v-25.54c0-.87.71-1.58,1.58-1.58h10.13c.87,0,1.58.71,1.58,1.58v25.54Z"/>
      <path id="Combined-Shape-6" data-name="Combined-Shape" class="cls-3" d="m120.07,428.47v1.58h-11.71c-.87,0-1.58-.71-1.58-1.58v-15.95c0-.87.71-1.58,1.58-1.58h10.13c.87,0,1.58.71,1.58,1.58v15.95Z"/>
    </g>
    <path id="html" class="cls-1" d="m155.25,9.81c10.16,0,20.32,0,30.49,0-.05.63-.09,1.26-.14,1.89-.16,2.23-.31,4.46-.47,6.69-.29,3.99-.59,7.99-.88,11.98-.19,2.72-.32,5.45-.58,8.16-.06.6.35,1.46-.68,1.79-3.2,1.03-6.37,2.13-9.57,3.14-1.08.34-2.19,1.18-3.27.85-4.22-1.27-8.39-2.72-12.59-4.09-.22-.07-.29-.18-.3-.42-.1-1.75-.21-3.51-.33-5.26-.29-4.03-.58-8.05-.88-12.08-.13-1.72-.27-3.43-.37-5.15-.16-2.5-.29-5-.44-7.49Zm6.64,22.71l.2,3.58c.07.11.11.29.2.33,1.71.57,3.42,1.13,5.13,1.69,1.07.32,2.16,1.17,3.21.9,2.56-.66,5.04-1.63,7.57-2.44.49-.16.69-.39.56-.88.02-.11.05-.23.07-.34.09-1.46.18-2.93.27-4.39.02-.14.05-.27.07-.41v-.54c.02-.14.05-.27.07-.41v-.54c.02-.14.05-.27.07-.41.02-.52.05-1.04.07-1.55.02-.09.05-.18.07-.27.05-.72.08-1.44.15-2.16.05-.44-.07-.56-.54-.56-4.35.02-8.71,0-13.06.03-.5,0-.78-.05-.69-.62-.02-.02-.03-.03-.05-.05-.09-1.24-.17-2.48-.28-3.72-.05-.56-.03-.86.73-.85,4.59.05,9.19.02,13.78.03.35,0,.51-.01.51-.46,0-.73.07-1.46.19-2.18.18-1.04.05-1.49-1.27-1.47-5.76.1-11.53.08-17.3.01-.97-.01-1.14.29-.98,1.09.02.12.1.23.1.35.06,1.26.12,2.53.18,3.79.02.05.04.09.05.14.16,2.46.32,4.91.49,7.37.02.14.05.27.07.41-.07.3.16.2.29.2,4.36,0,8.72,0,13.08,0,.32,0,.37.1.35.38-.05.62-.09,1.24-.13,1.86-.02.14-.05.27-.07.41-.03.52-.06,1.04-.08,1.57-.02.64-.1,1.13-.92,1.3-1.05.23-2.05.66-3.07,1l-.47.14c-.65-.19-1.3-.37-1.96-.56-.86-.29-1.71-.59-2.57-.88-.23-.34.24-1.05-.33-1.11-1.17-.11-2.35-.03-3.53-.02-.23-.06-.32.03-.26.26Z"/>
    <path id="html-2" data-name="html" class="cls-1" d="m0,349.83c10.16,0,20.32,0,30.49,0-.05.63-.09,1.26-.14,1.89-.16,2.23-.31,4.46-.47,6.69-.29,3.99-.59,7.99-.88,11.98-.19,2.72-.32,5.45-.58,8.16-.06.6.35,1.46-.68,1.79-3.2,1.03-6.37,2.13-9.57,3.14-1.08.34-2.19,1.18-3.27.85-4.22-1.27-8.39-2.72-12.59-4.09-.22-.07-.29-.18-.3-.42-.1-1.75-.21-3.51-.33-5.26-.29-4.03-.58-8.05-.88-12.08-.13-1.72-.27-3.43-.37-5.15-.16-2.5-.29-5-.44-7.49Zm6.64,22.71l.2,3.58c.07.11.11.29.2.33,1.71.57,3.42,1.13,5.13,1.69,1.07.32,2.16,1.17,3.21.9,2.56-.66,5.04-1.63,7.57-2.44.49-.16.69-.39.56-.88.02-.11.05-.23.07-.34.09-1.46.18-2.93.27-4.39.02-.14.05-.27.07-.41v-.54c.02-.14.05-.27.07-.41v-.54c.02-.14.05-.27.07-.41.02-.52.05-1.04.07-1.55.02-.09.05-.18.07-.27.05-.72.08-1.44.15-2.16.05-.44-.07-.56-.54-.56-4.35.02-8.71,0-13.06.03-.5,0-.78-.05-.69-.62-.02-.02-.03-.03-.05-.05-.09-1.24-.17-2.48-.28-3.72-.05-.56-.03-.86.73-.85,4.59.05,9.19.02,13.78.03.35,0,.51-.01.51-.46,0-.73.07-1.46.19-2.18.18-1.04.05-1.49-1.27-1.47-5.76.1-11.53.08-17.3.01-.97-.01-1.14.29-.98,1.09.02.12.1.23.1.35.06,1.26.12,2.53.18,3.79.02.05.04.09.05.14.16,2.46.32,4.91.49,7.37.02.14.05.27.07.41-.07.3.16.2.29.2,4.36,0,8.72,0,13.08,0,.32,0,.37.1.35.38-.05.62-.09,1.24-.13,1.86-.02.14-.05.27-.07.41-.03.52-.06,1.04-.08,1.57-.02.64-.1,1.13-.92,1.3-1.05.23-2.05.66-3.07,1l-.47.14c-.65-.19-1.3-.37-1.96-.56-.86-.29-1.71-.59-2.57-.88-.23-.34.24-1.05-.33-1.11-1.17-.11-2.35-.03-3.53-.02-.23-.06-.32.03-.26.26Z"/>
    <path id="html-3" data-name="html" class="cls-1" d="m355.98,567.57c10.16,0,20.32,0,30.49,0-.05.63-.09,1.26-.14,1.89-.16,2.23-.31,4.46-.47,6.69-.29,3.99-.59,7.99-.88,11.98-.19,2.72-.32,5.45-.58,8.16-.06.6.35,1.46-.68,1.79-3.2,1.03-6.37,2.13-9.57,3.14-1.08.34-2.19,1.18-3.27.85-4.22-1.27-8.39-2.72-12.59-4.09-.22-.07-.29-.18-.3-.42-.1-1.75-.21-3.51-.33-5.26-.29-4.03-.58-8.05-.88-12.08-.13-1.72-.27-3.43-.37-5.15-.16-2.5-.29-5-.44-7.49Zm6.64,22.71l.2,3.58c.07.11.11.29.2.33,1.71.57,3.42,1.13,5.13,1.69,1.07.32,2.16,1.17,3.21.9,2.56-.66,5.04-1.63,7.57-2.44.49-.16.69-.39.56-.88.02-.11.05-.23.07-.34.09-1.46.18-2.93.27-4.39.02-.14.05-.27.07-.41v-.54c.02-.14.05-.27.07-.41v-.54c.02-.14.05-.27.07-.41.02-.52.05-1.04.07-1.55.02-.09.05-.18.07-.27.05-.72.08-1.44.15-2.16.05-.44-.07-.56-.54-.56-4.35.02-8.71,0-13.06.03-.5,0-.78-.05-.69-.62-.02-.02-.03-.03-.05-.05-.09-1.24-.17-2.48-.28-3.72-.05-.56-.03-.86.73-.85,4.59.05,9.19.02,13.78.03.35,0,.51-.01.51-.46,0-.73.07-1.46.19-2.18.18-1.04.05-1.49-1.27-1.47-5.76.1-11.53.08-17.3.01-.97-.01-1.14.29-.98,1.09.02.12.1.23.1.35.06,1.26.12,2.53.18,3.79.02.05.04.09.05.14.16,2.46.32,4.91.49,7.37.02.14.05.27.07.41-.07.3.16.2.29.2,4.36,0,8.72,0,13.08,0,.32,0,.37.1.35.38-.05.62-.09,1.24-.13,1.86-.02.14-.05.27-.07.41-.03.52-.06,1.04-.08,1.57-.02.64-.1,1.13-.92,1.3-1.05.23-2.05.66-3.07,1l-.47.14c-.65-.19-1.3-.37-1.96-.56-.86-.29-1.71-.59-2.57-.88-.23-.34.24-1.05-.33-1.11-1.17-.11-2.35-.03-3.53-.02-.23-.06-.32.03-.26.26Z"/>
    <path id="html-4" data-name="html" class="cls-1" d="m1214.85,521.89c10.16,0,20.32,0,30.49,0-.05.63-.09,1.26-.14,1.89-.16,2.23-.31,4.46-.47,6.69-.29,3.99-.59,7.99-.88,11.98-.19,2.72-.32,5.45-.58,8.16-.06.6.35,1.46-.68,1.79-3.2,1.03-6.37,2.13-9.57,3.14-1.08.34-2.19,1.18-3.27.85-4.22-1.27-8.39-2.72-12.59-4.09-.22-.07-.29-.18-.3-.42-.1-1.75-.21-3.51-.33-5.26-.29-4.03-.58-8.05-.88-12.08-.13-1.72-.27-3.43-.37-5.15-.16-2.5-.29-5-.44-7.49Zm6.64,22.71l.2,3.58c.07.11.11.29.2.33,1.71.57,3.42,1.13,5.13,1.69,1.07.32,2.16,1.17,3.21.9,2.56-.66,5.04-1.63,7.57-2.44.49-.16.69-.39.56-.88.02-.11.05-.23.07-.34.09-1.46.18-2.93.27-4.39.02-.14.05-.27.07-.41v-.54c.02-.14.05-.27.07-.41v-.54c.02-.14.05-.27.07-.41.02-.52.05-1.04.07-1.55.02-.09.05-.18.07-.27.05-.72.08-1.44.15-2.16.05-.44-.07-.56-.54-.56-4.35.02-8.71,0-13.06.03-.5,0-.78-.05-.69-.62-.02-.02-.03-.03-.05-.05-.09-1.24-.17-2.48-.28-3.72-.05-.56-.03-.86.73-.85,4.59.05,9.19.02,13.78.03.35,0,.51-.01.51-.46,0-.73.07-1.46.19-2.18.18-1.04.05-1.49-1.27-1.47-5.76.1-11.53.08-17.3.01-.97-.01-1.14.29-.98,1.09.02.12.1.23.1.35.06,1.26.12,2.53.18,3.79.02.05.04.09.05.14.16,2.46.32,4.91.49,7.37.02.14.05.27.07.41-.07.3.16.2.29.2,4.36,0,8.72,0,13.08,0,.32,0,.37.1.35.38-.05.62-.09,1.24-.13,1.86-.02.14-.05.27-.07.41-.03.52-.06,1.04-.08,1.57-.02.64-.1,1.13-.92,1.3-1.05.23-2.05.66-3.07,1l-.47.14c-.65-.19-1.3-.37-1.96-.56-.86-.29-1.71-.59-2.57-.88-.23-.34.24-1.05-.33-1.11-1.17-.11-2.35-.03-3.53-.02-.23-.06-.32.03-.26.26Z"/>
    <path id="html-5" data-name="html" class="cls-1" d="m662.18,11.19c10.16,0,20.32,0,30.49,0-.05.63-.09,1.26-.14,1.89-.16,2.23-.31,4.46-.47,6.69-.29,3.99-.59,7.99-.88,11.98-.19,2.72-.32,5.45-.58,8.16-.06.6.35,1.46-.68,1.79-3.2,1.03-6.37,2.13-9.57,3.14-1.08.34-2.19,1.18-3.27.85-4.22-1.27-8.39-2.72-12.59-4.09-.22-.07-.29-.18-.3-.42-.1-1.75-.21-3.51-.33-5.26-.29-4.03-.58-8.05-.88-12.08-.13-1.72-.27-3.43-.37-5.15-.16-2.5-.29-5-.44-7.49Zm6.64,22.71l.2,3.58c.07.11.11.29.2.33,1.71.57,3.42,1.13,5.13,1.69,1.07.32,2.16,1.17,3.21.9,2.56-.66,5.04-1.63,7.57-2.44.49-.16.69-.39.56-.88.02-.11.05-.23.07-.34.09-1.46.18-2.93.27-4.39.02-.14.05-.27.07-.41v-.54c.02-.14.05-.27.07-.41v-.54c.02-.14.05-.27.07-.41.02-.52.05-1.04.07-1.55.02-.09.05-.18.07-.27.05-.72.08-1.44.15-2.16.05-.44-.07-.56-.54-.56-4.35.02-8.71,0-13.06.03-.5,0-.78-.05-.69-.62-.02-.02-.03-.03-.05-.05-.09-1.24-.17-2.48-.28-3.72-.05-.56-.03-.86.73-.85,4.59.05,9.19.02,13.78.03.35,0,.51-.01.51-.46,0-.73.07-1.46.19-2.18.18-1.04.05-1.49-1.27-1.47-5.76.1-11.53.08-17.3.01-.97-.01-1.14.29-.98,1.09.02.12.1.23.1.35.06,1.26.12,2.53.18,3.79.02.05.04.09.05.14.16,2.46.32,4.91.49,7.37.02.14.05.27.07.41-.07.3.16.2.29.2,4.36,0,8.72,0,13.08,0,.32,0,.37.1.35.38-.05.62-.09,1.24-.13,1.86-.02.14-.05.27-.07.41-.03.52-.06,1.04-.08,1.57-.02.64-.1,1.13-.92,1.3-1.05.23-2.05.66-3.07,1l-.47.14c-.65-.19-1.3-.37-1.96-.56-.86-.29-1.71-.59-2.57-.88-.23-.34.24-1.05-.33-1.11-1.17-.11-2.35-.03-3.53-.02-.23-.06-.32.03-.26.26Z"/>
    <path id="html-6" data-name="html" class="cls-1" d="m812.16,1.24c5.14,0,10.28,0,15.41,0-.02.32-.05.64-.07.96-.08,1.13-.16,2.25-.24,3.38-.15,2.02-.3,4.04-.44,6.06-.1,1.38-.16,2.75-.29,4.12-.03.3.17.74-.34.9-1.62.52-3.22,1.08-4.84,1.59-.55.17-1.11.59-1.65.43-2.14-.64-4.24-1.37-6.36-2.07-.11-.04-.14-.09-.15-.21-.05-.89-.1-1.77-.17-2.66-.14-2.04-.3-4.07-.44-6.1-.06-.87-.13-1.73-.19-2.6-.08-1.26-.15-2.53-.22-3.79Zm3.35,11.48l.1,1.81c.03.06.06.15.1.16.86.29,1.73.57,2.59.85.54.16,1.09.59,1.62.45,1.3-.33,2.55-.82,3.83-1.23.25-.08.35-.19.29-.45.01-.06.02-.11.03-.17.05-.74.09-1.48.14-2.22.01-.07.02-.14.03-.21v-.27c.01-.07.02-.14.03-.21v-.27c.01-.07.02-.14.03-.21.01-.26.02-.52.03-.79.01-.05.02-.09.04-.14.02-.36.04-.73.08-1.09.02-.22-.04-.28-.27-.28-2.2.01-4.4,0-6.6.01-.25,0-.4-.03-.35-.31,0,0-.02-.02-.02-.03-.05-.63-.09-1.25-.14-1.88-.02-.28-.01-.43.37-.43,2.32.02,4.65.01,6.97.02.18,0,.26,0,.26-.23,0-.37.04-.74.1-1.1.09-.53.02-.75-.64-.74-2.91.05-5.83.04-8.74,0-.49,0-.58.15-.49.55.01.06.05.12.05.18.03.64.06,1.28.09,1.92,0,.02.02.05.03.07.08,1.24.16,2.48.25,3.72.01.07.02.14.03.21-.03.15.08.1.15.1,2.2,0,4.41,0,6.61,0,.16,0,.19.05.18.19-.03.31-.04.63-.06.94-.01.07-.02.14-.03.21-.01.26-.03.53-.04.79,0,.32-.05.57-.46.66-.53.11-1.04.33-1.55.5l-.24.07c-.33-.09-.66-.19-.99-.28-.43-.15-.87-.3-1.3-.44-.12-.17.12-.53-.17-.56-.59-.06-1.19-.01-1.78-.01-.12-.03-.16.01-.13.13Z"/>
    <path id="css" class="cls-1" d="m18.34,146.9c5.09,0,10.18,0,15.28,0-.16,1.84-.32,3.69-.48,5.53-.12,1.43-.25,2.85-.38,4.28-.16,1.85-.31,3.69-.49,5.54-.01.14.09.38-.11.43-1.25.36-2.51.67-3.76,1.05-1.38.42-2.71.83-4.19.22-1.14-.47-2.4-.67-3.59-1.03-.31-.09-.83-.03-.9-.38-.15-.77-.17-1.56-.23-2.35-.07-.82-.13-1.65-.21-2.47-.15-1.64-.3-3.29-.44-4.93-.09-1.06-.16-2.11-.25-3.17-.08-.91-.18-1.81-.26-2.72Zm7.44,3.22s0,0,0,0c-1.46,0-2.92,0-4.37,0-.24,0-.29.08-.27.29.03.35,0,.7.09,1.04.04.18-.19.54.31.53,2.29-.03,4.58-.02,6.87-.05.32,0,.35.11.33.37-.03.3-.01.61-.08.9-.05.24.11.66-.17.69-.79.08-1.6.05-2.4.06-1.5.01-3.01.02-4.51.03-.11,0-.13.04-.12.14.05.41.11.82.13,1.23.02.33.09.48.49.48,2.06-.03,4.11-.02,6.17-.03.15,0,.21.06.19.18-.07.65-.15,1.3-.24,1.95-.03.19-.02.53-.11.56-1.18.38-2.36.81-3.6.2-.29-.14-.76-.02-.72-.58.02-.21-.03-.42-.03-.62,0-.41-.05-.71-.61-.62-.39.06-.81.02-1.21,0-.13,0-.18.02-.17.16.07.84.12,1.68.22,2.51.02.14-.13.39.15.46.79.22,1.58.45,2.37.67.52.14,1.08.45,1.56.35,1.28-.25,2.52-.67,3.78-1.02.1-.03.12-.08.13-.17.09-1.05.18-2.09.27-3.14.09-1.01.18-2.02.27-3.03.09-.93.2-1.86.26-2.8.01-.23.2-.52-.04-.69-.13-.09-.37-.04-.56-.04-1.46,0-2.92,0-4.37,0Z"/>
    <path id="css-2" data-name="css" class="cls-1" d="m10.03,617.47c10.07,0,20.15,0,30.22,0-.32,3.65-.63,7.29-.95,10.94-.25,2.82-.5,5.64-.74,8.47-.32,3.65-.62,7.3-.97,10.95-.03.27.18.74-.21.86-2.47.71-4.97,1.32-7.44,2.07-2.73.83-5.36,1.63-8.28.43-2.26-.93-4.74-1.32-7.1-2.04-.61-.19-1.63-.07-1.77-.75-.31-1.52-.33-3.09-.46-4.64-.14-1.63-.26-3.26-.41-4.89-.29-3.25-.59-6.5-.87-9.75-.18-2.09-.31-4.18-.49-6.26-.16-1.79-.35-3.58-.52-5.37Zm14.72,6.36s0,0,0,0c-2.88,0-5.77.01-8.65-.01-.48,0-.57.15-.53.57.07.69.02,1.39.17,2.06.08.36-.37,1.07.62,1.05,4.53-.07,9.05-.05,13.58-.11.64,0,.7.23.64.73-.07.6-.03,1.21-.16,1.79-.11.47.22,1.31-.33,1.37-1.57.17-3.16.1-4.74.12-2.98.03-5.95.05-8.93.06-.22,0-.26.07-.24.27.09.81.21,1.62.26,2.43.04.65.17.96.98.94,4.07-.07,8.13-.04,12.2-.07.3,0,.41.11.38.35-.15,1.28-.31,2.57-.47,3.85-.05.39-.05,1.05-.22,1.11-2.33.75-4.67,1.59-7.12.39-.57-.28-1.5-.04-1.42-1.14.03-.41-.06-.82-.06-1.23,0-.81-.1-1.4-1.2-1.22-.78.13-1.6.03-2.4.02-.25,0-.36.03-.34.32.14,1.66.24,3.32.44,4.97.03.28-.26.76.29.92,1.56.44,3.12.89,4.69,1.32,1.03.28,2.14.88,3.09.7,2.53-.49,4.98-1.32,7.47-2.01.2-.05.24-.15.25-.34.17-2.07.35-4.14.54-6.21.18-2,.35-3.99.54-5.98.17-1.84.39-3.68.51-5.53.03-.45.4-1.03-.09-1.37-.27-.18-.74-.08-1.12-.08-2.88,0-5.77,0-8.65,0Z"/>
    <path id="css-3" data-name="css" class="cls-1" d="m416.26,594.18c5.09,0,10.18,0,15.28,0-.16,1.84-.32,3.69-.48,5.53-.12,1.43-.25,2.85-.38,4.28-.16,1.85-.31,3.69-.49,5.54-.01.14.09.38-.11.43-1.25.36-2.51.67-3.76,1.05-1.38.42-2.71.83-4.19.22-1.14-.47-2.4-.67-3.59-1.03-.31-.09-.83-.03-.9-.38-.15-.77-.17-1.56-.23-2.35-.07-.82-.13-1.65-.21-2.47-.15-1.64-.3-3.29-.44-4.93-.09-1.06-.16-2.11-.25-3.17-.08-.91-.18-1.81-.26-2.72Zm7.44,3.22s0,0,0,0c-1.46,0-2.92,0-4.37,0-.24,0-.29.08-.27.29.03.35,0,.7.09,1.04.04.18-.19.54.31.53,2.29-.03,4.58-.02,6.87-.05.32,0,.35.11.33.37-.03.3-.01.61-.08.9-.05.24.11.66-.17.69-.79.08-1.6.05-2.4.06-1.5.01-3.01.02-4.51.03-.11,0-.13.04-.12.14.05.41.11.82.13,1.23.02.33.09.48.49.48,2.06-.03,4.11-.02,6.17-.03.15,0,.21.06.19.18-.07.65-.15,1.3-.24,1.95-.03.19-.02.53-.11.56-1.18.38-2.36.81-3.6.2-.29-.14-.76-.02-.72-.58.02-.21-.03-.42-.03-.62,0-.41-.05-.71-.61-.62-.39.06-.81.02-1.21,0-.13,0-.18.02-.17.16.07.84.12,1.68.22,2.51.02.14-.13.39.15.46.79.22,1.58.45,2.37.67.52.14,1.08.45,1.56.35,1.28-.25,2.52-.67,3.78-1.02.1-.03.12-.08.13-.17.09-1.05.18-2.09.27-3.14.09-1.01.18-2.02.27-3.03.09-.93.2-1.86.26-2.8.01-.23.2-.52-.04-.69-.13-.09-.37-.04-.56-.04-1.46,0-2.92,0-4.37,0Z"/>
    <path id="css-4" data-name="css" class="cls-1" d="m920.63,545.66c10.07,0,20.15,0,30.22,0-.32,3.65-.63,7.29-.95,10.94-.25,2.82-.5,5.64-.74,8.47-.32,3.65-.62,7.3-.97,10.95-.03.27.18.74-.21.86-2.47.71-4.97,1.32-7.44,2.07-2.73.83-5.36,1.63-8.28.43-2.26-.93-4.74-1.32-7.1-2.04-.61-.19-1.63-.07-1.77-.75-.31-1.52-.33-3.09-.46-4.64-.14-1.63-.26-3.26-.41-4.89-.29-3.25-.59-6.5-.87-9.75-.18-2.09-.31-4.18-.49-6.26-.16-1.79-.35-3.58-.52-5.37Zm14.72,6.36s0,0,0,0c-2.88,0-5.77.01-8.65-.01-.48,0-.57.15-.53.57.07.69.02,1.39.17,2.06.08.36-.37,1.07.62,1.05,4.53-.07,9.05-.05,13.58-.11.64,0,.7.23.64.73-.07.6-.03,1.21-.16,1.79-.11.47.22,1.31-.33,1.37-1.57.17-3.16.1-4.74.12-2.98.03-5.95.05-8.93.06-.22,0-.26.07-.24.27.09.81.21,1.62.26,2.43.04.65.17.96.98.94,4.07-.07,8.13-.04,12.2-.07.3,0,.41.11.38.35-.15,1.28-.31,2.57-.47,3.85-.05.39-.05,1.05-.22,1.11-2.33.75-4.67,1.59-7.12.39-.57-.28-1.5-.04-1.42-1.14.03-.41-.06-.82-.06-1.23,0-.81-.1-1.4-1.2-1.22-.78.13-1.6.03-2.4.02-.25,0-.36.03-.34.32.14,1.66.24,3.32.44,4.97.03.28-.26.76.29.92,1.56.44,3.12.89,4.69,1.32,1.03.28,2.14.88,3.09.7,2.53-.49,4.98-1.32,7.47-2.01.2-.05.24-.15.25-.34.17-2.07.35-4.14.54-6.21.18-2,.35-3.99.54-5.98.17-1.84.39-3.68.51-5.53.03-.45.4-1.03-.09-1.37-.27-.18-.74-.08-1.12-.08-2.88,0-5.77,0-8.65,0Z"/>
    <path id="css-5" data-name="css" class="cls-1" d="m1125.73,439.36c10.07,0,20.15,0,30.22,0-.32,3.65-.63,7.29-.95,10.94-.25,2.82-.5,5.64-.74,8.47-.32,3.65-.62,7.3-.97,10.95-.03.27.18.74-.21.86-2.47.71-4.97,1.32-7.44,2.07-2.73.83-5.36,1.63-8.28.43-2.26-.93-4.74-1.32-7.1-2.04-.61-.19-1.63-.07-1.77-.75-.31-1.52-.33-3.09-.46-4.64-.14-1.63-.26-3.26-.41-4.89-.29-3.25-.59-6.5-.87-9.75-.18-2.09-.31-4.18-.49-6.26-.16-1.79-.35-3.58-.52-5.37Zm14.72,6.36s0,0,0,0c-2.88,0-5.77.01-8.65-.01-.48,0-.57.15-.53.57.07.69.02,1.39.17,2.06.08.36-.37,1.07.62,1.05,4.53-.07,9.05-.05,13.58-.11.64,0,.7.23.64.73-.07.6-.03,1.21-.16,1.79-.11.47.22,1.31-.33,1.37-1.57.17-3.16.1-4.74.12-2.98.03-5.95.05-8.93.06-.22,0-.26.07-.24.27.09.81.21,1.62.26,2.43.04.65.17.96.98.94,4.07-.07,8.13-.04,12.2-.07.3,0,.41.11.38.35-.15,1.28-.31,2.57-.47,3.85-.05.39-.05,1.05-.22,1.11-2.33.75-4.67,1.59-7.12.39-.57-.28-1.5-.04-1.42-1.14.03-.41-.06-.82-.06-1.23,0-.81-.1-1.4-1.2-1.22-.78.13-1.6.03-2.4.02-.25,0-.36.03-.34.32.14,1.66.24,3.32.44,4.97.03.28-.26.76.29.92,1.56.44,3.12.89,4.69,1.32,1.03.28,2.14.88,3.09.7,2.53-.49,4.98-1.32,7.47-2.01.2-.05.24-.15.25-.34.17-2.07.35-4.14.54-6.21.18-2,.35-3.99.54-5.98.17-1.84.39-3.68.51-5.53.03-.45.4-1.03-.09-1.37-.27-.18-.74-.08-1.12-.08-2.88,0-5.77,0-8.65,0Z"/>
    <path id="css-6" data-name="css" class="cls-1" d="m1131.38,104.58c5.09,0,10.18,0,15.28,0-.16,1.84-.32,3.69-.48,5.53-.12,1.43-.25,2.85-.38,4.28-.16,1.85-.31,3.69-.49,5.54-.01.14.09.38-.11.43-1.25.36-2.51.67-3.76,1.05-1.38.42-2.71.83-4.19.22-1.14-.47-2.4-.67-3.59-1.03-.31-.09-.83-.03-.9-.38-.15-.77-.17-1.56-.23-2.35-.07-.82-.13-1.65-.21-2.47-.15-1.64-.3-3.29-.44-4.93-.09-1.06-.16-2.11-.25-3.17-.08-.91-.18-1.81-.26-2.72Zm7.44,3.22s0,0,0,0c-1.46,0-2.92,0-4.37,0-.24,0-.29.08-.27.29.03.35,0,.7.09,1.04.04.18-.19.54.31.53,2.29-.03,4.58-.02,6.87-.05.32,0,.35.11.33.37-.03.3-.01.61-.08.9-.05.24.11.66-.17.69-.79.08-1.6.05-2.4.06-1.5.01-3.01.02-4.51.03-.11,0-.13.04-.12.14.05.41.11.82.13,1.23.02.33.09.48.49.48,2.06-.03,4.11-.02,6.17-.03.15,0,.21.06.19.18-.07.65-.15,1.3-.24,1.95-.03.19-.02.53-.11.56-1.18.38-2.36.81-3.6.2-.29-.14-.76-.02-.72-.58.02-.21-.03-.42-.03-.62,0-.41-.05-.71-.61-.62-.39.06-.81.02-1.21,0-.13,0-.18.02-.17.16.07.84.12,1.68.22,2.51.02.14-.13.39.15.46.79.22,1.58.45,2.37.67.52.14,1.08.45,1.56.35,1.28-.25,2.52-.67,3.78-1.02.1-.03.12-.08.13-.17.09-1.05.18-2.09.27-3.14.09-1.01.18-2.02.27-3.03.09-.93.2-1.86.26-2.8.01-.23.2-.52-.04-.69-.13-.09-.37-.04-.56-.04-1.46,0-2.92,0-4.37,0Z"/>
    <path id="css-7" data-name="css" class="cls-1" d="m1116.84,332.77c5.09,0,10.18,0,15.28,0-.16,1.84-.32,3.69-.48,5.53-.12,1.43-.25,2.85-.38,4.28-.16,1.85-.31,3.69-.49,5.54-.01.14.09.38-.11.43-1.25.36-2.51.67-3.76,1.05-1.38.42-2.71.83-4.19.22-1.14-.47-2.4-.67-3.59-1.03-.31-.09-.83-.03-.9-.38-.15-.77-.17-1.56-.23-2.35-.07-.82-.13-1.65-.21-2.47-.15-1.64-.3-3.29-.44-4.93-.09-1.06-.16-2.11-.25-3.17-.08-.91-.18-1.81-.26-2.72Zm7.44,3.22s0,0,0,0c-1.46,0-2.92,0-4.37,0-.24,0-.29.08-.27.29.03.35,0,.7.09,1.04.04.18-.19.54.31.53,2.29-.03,4.58-.02,6.87-.05.32,0,.35.11.33.37-.03.3-.01.61-.08.9-.05.24.11.66-.17.69-.79.08-1.6.05-2.4.06-1.5.01-3.01.02-4.51.03-.11,0-.13.04-.12.14.05.41.11.82.13,1.23.02.33.09.48.49.48,2.06-.03,4.11-.02,6.17-.03.15,0,.21.06.19.18-.07.65-.15,1.3-.24,1.95-.03.19-.02.53-.11.56-1.18.38-2.36.81-3.6.2-.29-.14-.76-.02-.72-.58.02-.21-.03-.42-.03-.62,0-.41-.05-.71-.61-.62-.39.06-.81.02-1.21,0-.13,0-.18.02-.17.16.07.84.12,1.68.22,2.51.02.14-.13.39.15.46.79.22,1.58.45,2.37.67.52.14,1.08.45,1.56.35,1.28-.25,2.52-.67,3.78-1.02.1-.03.12-.08.13-.17.09-1.05.18-2.09.27-3.14.09-1.01.18-2.02.27-3.03.09-.93.2-1.86.26-2.8.01-.23.2-.52-.04-.69-.13-.09-.37-.04-.56-.04-1.46,0-2.92,0-4.37,0Z"/>
    <g id="ai">
      <path class="cls-1" d="m186.61,202.11v21.55c-.1.2-.13.42-.18.63-.26,1.1-.79,2.05-1.61,2.81-1.16,1.08-2.54,1.62-4.16,1.62-6.88-.02-13.75-.01-20.63,0-.5,0-1.01-.02-1.48-.14-1.59-.42-2.83-1.34-3.67-2.77-.42-.71-.72-1.49-.72-2.32-.02-6.99-.02-13.99,0-20.98,0-1.28.49-2.41,1.31-3.38,1.21-1.43,2.8-2.07,4.65-2.07,6.76,0,13.52,0,20.28,0,.63,0,1.27.02,1.89.2,2.08.6,3.45,1.93,4.09,4.01.08.28.04.59.23.84Zm-14.02,17.31c.42,0,.85-.01,1.27,0,.29.01.31-.11.23-.33-.17-.49-.31-.99-.49-1.48-.79-2.21-1.6-4.42-2.39-6.64-.66-1.85-1.32-3.7-1.96-5.56-.06-.19-.14-.26-.33-.26-1.09,0-2.18,0-3.26,0-.18,0-.22.06-.23.24-.03.36-.05.71-.17,1.07-.33.91-.61,1.83-.93,2.74-.66,1.92-1.33,3.83-2,5.75-.47,1.36-.95,2.72-1.42,4.08-.09.25-.09.41.26.4.73-.02,1.46-.02,2.19,0,.29,0,.42-.11.5-.38.28-.92.58-1.83.88-2.74.05-.14.08-.26.3-.26,1.53.02,3.06.01,4.6,0,.17,0,.25.05.3.22.31.96.64,1.91.96,2.86.07.19.19.3.42.29.42-.02.84,0,1.27,0Zm2.99-5.46h.02c0,1.7,0,3.4,0,5.1,0,.29.08.38.38.37.73-.02,1.46-.03,2.18,0,.37.01.48-.11.48-.48-.01-2.55,0-5.11,0-7.66,0-.77,0-1.54,0-2.31,0-.18,0-.37-.26-.37-.85,0-1.71,0-2.56,0-.15,0-.22.04-.22.22,0,1.71,0,3.42,0,5.13Zm1.56-9.82c-.96-.11-1.74.82-1.7,1.56.06,1.12.64,1.81,1.66,1.8,1.18,0,1.68-.84,1.69-1.72.01-.94-.53-1.65-1.66-1.64Z"/>
      <path class="cls-1" d="m169.05,213.31c-1.09,0-2.15,0-3.22,0-.34,0-.15-.24-.13-.32.21-.77.45-1.54.69-2.31.27-.9.55-1.81.82-2.71.02-.08,0-.19.1-.19.06,0,.08.1.1.18.54,1.78,1.08,3.55,1.64,5.36Z"/>
    </g>
    <g id="ai-2" data-name="ai">
      <path class="cls-1" d="m129.18,522.28v21.55c-.1.2-.13.42-.18.63-.26,1.1-.79,2.05-1.61,2.81-1.16,1.08-2.54,1.62-4.16,1.62-6.88-.02-13.75-.01-20.63,0-.5,0-1.01-.02-1.48-.14-1.59-.42-2.83-1.34-3.67-2.77-.42-.71-.72-1.49-.72-2.32-.02-6.99-.02-13.99,0-20.98,0-1.28.49-2.41,1.31-3.38,1.21-1.43,2.8-2.07,4.65-2.07,6.76,0,13.52,0,20.28,0,.63,0,1.27.02,1.89.2,2.08.6,3.45,1.93,4.09,4.01.08.28.04.59.23.84Zm-14.02,17.31c.42,0,.85-.01,1.27,0,.29.01.31-.11.23-.33-.17-.49-.31-.99-.49-1.48-.79-2.21-1.6-4.42-2.39-6.64-.66-1.85-1.32-3.7-1.96-5.56-.06-.19-.14-.26-.33-.26-1.09,0-2.18,0-3.26,0-.18,0-.22.06-.23.24-.03.36-.05.71-.17,1.07-.33.91-.61,1.83-.93,2.74-.66,1.92-1.33,3.83-2,5.75-.47,1.36-.95,2.72-1.42,4.08-.09.25-.09.41.26.4.73-.02,1.46-.02,2.19,0,.29,0,.42-.11.5-.38.28-.92.58-1.83.88-2.74.05-.14.08-.26.3-.26,1.53.02,3.06.01,4.6,0,.17,0,.25.05.3.22.31.96.64,1.91.96,2.86.07.19.19.3.42.29.42-.02.84,0,1.27,0Zm2.99-5.46h.02c0,1.7,0,3.4,0,5.1,0,.29.08.38.38.37.73-.02,1.46-.03,2.18,0,.37.01.48-.11.48-.48-.01-2.55,0-5.11,0-7.66,0-.77,0-1.54,0-2.31,0-.18,0-.37-.26-.37-.85,0-1.71,0-2.56,0-.15,0-.22.04-.22.22,0,1.71,0,3.42,0,5.13Zm1.56-9.82c-.96-.11-1.74.82-1.7,1.56.06,1.12.64,1.81,1.66,1.8,1.18,0,1.68-.84,1.69-1.72.01-.94-.53-1.65-1.66-1.64Z"/>
      <path class="cls-1" d="m111.62,533.48c-1.09,0-2.15,0-3.22,0-.34,0-.15-.24-.13-.32.21-.77.45-1.54.69-2.31.27-.9.55-1.81.82-2.71.02-.08,0-.19.1-.19.06,0,.08.1.1.18.54,1.78,1.08,3.55,1.64,5.36Z"/>
    </g>
    <g id="ai-3" data-name="ai">
      <path class="cls-1" d="m851.86,618.26v10.9c-.05.1-.06.21-.09.32-.13.56-.4,1.04-.81,1.42-.59.55-1.28.82-2.1.82-3.48,0-6.95,0-10.43,0-.26,0-.51,0-.75-.07-.81-.21-1.43-.68-1.85-1.4-.21-.36-.36-.76-.36-1.17,0-3.54,0-7.07,0-10.61,0-.65.25-1.22.66-1.71.61-.72,1.41-1.04,2.35-1.04,3.42,0,6.84,0,10.25,0,.32,0,.64,0,.95.1,1.05.3,1.75.98,2.07,2.03.04.14.02.3.12.42Zm-7.09,8.75c.21,0,.43,0,.64,0,.15,0,.15-.05.12-.17-.08-.25-.16-.5-.25-.75-.4-1.12-.81-2.24-1.21-3.36-.33-.93-.67-1.87-.99-2.81-.03-.09-.07-.13-.16-.13-.55,0-1.1,0-1.65,0-.09,0-.11.03-.12.12-.01.18-.02.36-.09.54-.17.46-.31.92-.47,1.38-.34.97-.67,1.94-1.01,2.91-.24.69-.48,1.38-.72,2.06-.04.13-.04.21.13.2.37-.01.74,0,1.11,0,.15,0,.21-.06.25-.19.14-.46.3-.92.45-1.38.02-.07.04-.13.15-.13.77,0,1.55,0,2.32,0,.09,0,.13.03.15.11.16.48.32.97.49,1.45.03.1.09.15.21.15.21,0,.43,0,.64,0Zm1.51-2.76h0c0,.86,0,1.72,0,2.58,0,.15.04.19.19.19.37-.01.74-.01,1.1,0,.19,0,.24-.06.24-.24,0-1.29,0-2.58,0-3.87,0-.39,0-.78,0-1.17,0-.09,0-.19-.13-.19-.43,0-.86,0-1.3,0-.08,0-.11.02-.11.11,0,.86,0,1.73,0,2.59Zm.79-4.97c-.49-.06-.88.41-.86.79.03.57.32.91.84.91.6,0,.85-.43.86-.87,0-.48-.27-.84-.84-.83Z"/>
      <path class="cls-1" d="m842.98,623.92c-.55,0-1.09,0-1.63,0-.17,0-.08-.12-.07-.16.11-.39.23-.78.35-1.17.14-.46.28-.91.41-1.37.01-.04,0-.1.05-.1.03,0,.04.05.05.09.27.9.55,1.8.83,2.71Z"/>
    </g>
    <g id="ai-4" data-name="ai">
      <path class="cls-1" d="m1243.06,22.29v21.55c-.1.2-.13.42-.18.63-.26,1.1-.79,2.05-1.61,2.81-1.16,1.08-2.54,1.62-4.16,1.62-6.88-.02-13.75-.01-20.63,0-.5,0-1.01-.02-1.48-.14-1.59-.42-2.83-1.34-3.67-2.77-.42-.71-.72-1.49-.72-2.32-.02-6.99-.02-13.99,0-20.98,0-1.28.49-2.41,1.31-3.38,1.21-1.43,2.8-2.07,4.65-2.07,6.76,0,13.52,0,20.28,0,.63,0,1.27.02,1.89.2,2.08.6,3.45,1.93,4.09,4.01.08.28.04.59.23.84Zm-14.02,17.31c.42,0,.85-.01,1.27,0,.29.01.31-.11.23-.33-.17-.49-.31-.99-.49-1.48-.79-2.21-1.6-4.42-2.39-6.64-.66-1.85-1.32-3.7-1.96-5.56-.06-.19-.14-.26-.33-.26-1.09,0-2.18,0-3.26,0-.18,0-.22.06-.23.24-.03.36-.05.71-.17,1.07-.33.91-.61,1.83-.93,2.74-.66,1.92-1.33,3.83-2,5.75-.47,1.36-.95,2.72-1.42,4.08-.09.25-.09.41.26.4.73-.02,1.46-.02,2.19,0,.29,0,.42-.11.5-.38.28-.92.58-1.83.88-2.74.05-.14.08-.26.3-.26,1.53.02,3.06.01,4.6,0,.17,0,.25.05.3.22.31.96.64,1.91.96,2.86.07.19.19.3.42.29.42-.02.84,0,1.27,0Zm2.99-5.46h.02c0,1.7,0,3.4,0,5.1,0,.29.08.38.38.37.73-.02,1.46-.03,2.18,0,.37.01.48-.11.48-.48-.01-2.55,0-5.11,0-7.66,0-.77,0-1.54,0-2.31,0-.18,0-.37-.26-.37-.85,0-1.71,0-2.56,0-.15,0-.22.04-.22.22,0,1.71,0,3.42,0,5.13Zm1.56-9.82c-.96-.11-1.74.82-1.7,1.56.06,1.12.64,1.81,1.66,1.8,1.18,0,1.68-.84,1.69-1.72.01-.94-.53-1.65-1.66-1.64Z"/>
      <path class="cls-1" d="m1225.51,33.49c-1.09,0-2.15,0-3.22,0-.34,0-.15-.24-.13-.32.21-.77.45-1.54.69-2.31.27-.9.55-1.81.82-2.71.02-.08,0-.19.1-.19.06,0,.08.1.1.18.54,1.78,1.08,3.55,1.64,5.36Z"/>
    </g>
    <g id="ai-5" data-name="ai">
      <path class="cls-1" d="m445.06,5.05v21.55c-.1.2-.13.42-.18.63-.26,1.1-.79,2.05-1.61,2.81-1.16,1.08-2.54,1.62-4.16,1.62-6.88-.02-13.75-.01-20.63,0-.5,0-1.01-.02-1.48-.14-1.59-.42-2.83-1.34-3.67-2.77-.42-.71-.72-1.49-.72-2.32-.02-6.99-.02-13.99,0-20.98,0-1.28.49-2.41,1.31-3.38C415.13.64,416.71,0,418.57,0c6.76,0,13.52,0,20.28,0,.63,0,1.27.02,1.89.2,2.08.6,3.45,1.93,4.09,4.01.08.28.04.59.23.84Zm-14.02,17.31c.42,0,.85-.01,1.27,0,.29.01.31-.11.23-.33-.17-.49-.31-.99-.49-1.48-.79-2.21-1.6-4.42-2.39-6.64-.66-1.85-1.32-3.7-1.96-5.56-.06-.19-.14-.26-.33-.26-1.09,0-2.18,0-3.26,0-.18,0-.22.06-.23.24-.03.36-.05.71-.17,1.07-.33.91-.61,1.83-.93,2.74-.66,1.92-1.33,3.83-2,5.75-.47,1.36-.95,2.72-1.42,4.08-.09.25-.09.41.26.4.73-.02,1.46-.02,2.19,0,.29,0,.42-.11.5-.38.28-.92.58-1.83.88-2.74.05-.14.08-.26.3-.26,1.53.02,3.06.01,4.6,0,.17,0,.25.05.3.22.31.96.64,1.91.96,2.86.07.19.19.3.42.29.42-.02.84,0,1.27,0Zm2.99-5.46h.02c0,1.7,0,3.4,0,5.1,0,.29.08.38.38.37.73-.02,1.46-.03,2.18,0,.37.01.48-.11.48-.48-.01-2.55,0-5.11,0-7.66,0-.77,0-1.54,0-2.31,0-.18,0-.37-.26-.37-.85,0-1.71,0-2.56,0-.15,0-.22.04-.22.22,0,1.71,0,3.42,0,5.13Zm1.56-9.82c-.96-.11-1.74.82-1.7,1.56.06,1.12.64,1.81,1.66,1.8,1.18,0,1.68-.84,1.69-1.72.01-.94-.53-1.65-1.66-1.64Z"/>
      <path class="cls-1" d="m427.5,16.25c-1.09,0-2.15,0-3.22,0-.34,0-.15-.24-.13-.32.21-.77.45-1.54.69-2.31.27-.9.55-1.81.82-2.71.02-.08,0-.19.1-.19.06,0,.08.1.1.18.54,1.78,1.08,3.55,1.64,5.36Z"/>
    </g>
    <g id="ps">
      <path class="cls-1" d="m283.72,32.71h-.23c-.06-.01-.13-.03-.19-.03-4.84,0-9.69,0-14.53,0-.06,0-.13.02-.19.03h-.27c-.43-.13-.71-.41-.84-.84v-15.5c.19-.52.56-.8,1.11-.8,4.91,0,9.81,0,14.72,0,.84,0,1.33.33,1.32,1.3,0,4.84,0,9.67,0,14.51,0,.67-.23,1.15-.91,1.33Zm-13.43-9.02c0,1.51,0,3.01,0,4.52,0,.12.03.16.15.16.61,0,1.22,0,1.83,0,.12,0,.15-.03.14-.15,0-1.02,0-2.03,0-3.05,0-.13.03-.18.16-.16.44.06.87.01,1.32-.02,1.56-.13,2.96-1.08,3.16-2.75.16-1.37-.72-2.83-2.05-3.15-1.36-.33-2.72-.21-4.09-.11-.19.01-.62-.18-.62.3,0,1.47,0,2.94,0,4.42Zm9.11,4.8c.38.04.79-.06,1.21-.13,1.47-.24,2.25-2,1.39-3.22-.47-.67-1.25-.84-1.94-1.14-.32-.14-.72-.23-.65-.71.05-.34.35-.42.63-.45.38-.04.74.11,1.11.14.19.01.4.51.58.04.14-.36.19-.75.29-1.12.02-.09.05-.16-.06-.2-1.02-.34-2.04-.5-3.1-.14-1.27.42-1.91,1.81-1.31,2.87.46.82,1.31,1.07,2.12,1.38.29.11.63.23.62.62-.01.38-.29.51-.64.56-.71.1-1.34-.13-1.96-.41-.15-.07-.18-.02-.21.1-.08.31-.16.62-.23.93-.05.22-.18.44.2.57.62.21,1.24.34,1.93.31Z"/>
      <path class="cls-1" d="m272.4,21.93c0-.37,0-.75,0-1.12,0-.17,0-.3.23-.31.59-.02,1.18-.1,1.72.22.5.3.65.79.59,1.33-.08.74-.57,1.12-1.25,1.28-.38.09-.78.1-1.18.04-.1-.02-.11-.08-.11-.17,0-.42,0-.85,0-1.27Z"/>
    </g>
    <g id="ps-2" data-name="ps">
      <path class="cls-1" d="m65.31,272.73h-.46c-.13-.02-.25-.06-.38-.06-9.58,0-19.16,0-28.74,0-.13,0-.25.04-.38.06h-.53c-.84-.26-1.4-.81-1.66-1.66v-30.66c.37-1.03,1.1-1.58,2.2-1.59,9.71,0,19.41,0,29.12,0,1.67,0,2.62.65,2.62,2.58-.02,9.57-.01,19.13,0,28.7,0,1.33-.45,2.27-1.8,2.63Zm-26.58-17.85c0,2.98,0,5.96,0,8.94,0,.24.05.32.3.31,1.2-.01,2.41-.01,3.61,0,.24,0,.29-.06.29-.29,0-2.01,0-4.02-.01-6.02,0-.26.07-.35.33-.32.87.11,1.73.03,2.6-.05,3.08-.26,5.86-2.13,6.26-5.45.32-2.7-1.42-5.6-4.05-6.24-2.69-.65-5.39-.42-8.08-.21-.38.03-1.23-.36-1.23.59-.01,2.91,0,5.82,0,8.74Zm18.01,9.5c.76.08,1.57-.12,2.39-.25,2.91-.47,4.45-3.96,2.76-6.36-.93-1.33-2.47-1.66-3.84-2.26-.63-.27-1.42-.46-1.28-1.41.1-.68.7-.83,1.25-.89.75-.09,1.47.22,2.2.27.38.03.8,1,1.16.08.27-.71.38-1.48.58-2.21.04-.17.1-.31-.12-.39-2.01-.68-4.04-.98-6.12-.28-2.5.84-3.78,3.58-2.59,5.68.92,1.62,2.6,2.12,4.19,2.74.58.23,1.25.45,1.23,1.23-.03.75-.57,1.01-1.27,1.1-1.4.19-2.65-.26-3.87-.82-.29-.13-.36-.03-.41.2-.15.61-.32,1.22-.45,1.83-.1.44-.37.87.4,1.12,1.22.41,2.44.68,3.82.62Z"/>
      <path class="cls-1" d="m42.92,251.41c0-.74.01-1.48,0-2.22,0-.34-.02-.6.45-.61,1.16-.04,2.33-.2,3.4.43,1,.59,1.28,1.56,1.17,2.62-.15,1.46-1.12,2.22-2.46,2.53-.76.18-1.55.2-2.33.08-.2-.03-.22-.16-.22-.33,0-.84,0-1.68,0-2.52Z"/>
    </g>
    <g id="ps-3" data-name="ps">
      <path class="cls-1" d="m1240.97,384.28h-.46c-.13-.02-.25-.06-.38-.06-9.58,0-19.16,0-28.74,0-.13,0-.25.04-.38.06h-.53c-.84-.26-1.4-.81-1.66-1.66v-30.66c.37-1.03,1.1-1.58,2.2-1.59,9.71,0,19.41,0,29.12,0,1.67,0,2.62.65,2.62,2.58-.02,9.57-.01,19.13,0,28.7,0,1.33-.45,2.27-1.8,2.63Zm-26.58-17.85c0,2.98,0,5.96,0,8.94,0,.24.05.32.3.31,1.2-.01,2.41-.01,3.61,0,.24,0,.29-.06.29-.29,0-2.01,0-4.02-.01-6.02,0-.26.07-.35.33-.32.87.11,1.73.03,2.6-.05,3.08-.26,5.86-2.13,6.26-5.45.32-2.7-1.42-5.6-4.05-6.24-2.69-.65-5.39-.42-8.08-.21-.38.03-1.23-.36-1.23.59-.01,2.91,0,5.82,0,8.74Zm18.01,9.5c.76.08,1.57-.12,2.39-.25,2.91-.47,4.45-3.96,2.76-6.36-.93-1.33-2.47-1.66-3.84-2.26-.63-.27-1.42-.46-1.28-1.41.1-.68.7-.83,1.25-.89.75-.09,1.47.22,2.2.27.38.03.8,1,1.16.08.27-.71.38-1.48.58-2.21.04-.17.1-.31-.12-.39-2.01-.68-4.04-.98-6.12-.28-2.5.84-3.78,3.58-2.59,5.68.92,1.62,2.6,2.12,4.19,2.74.58.23,1.25.45,1.23,1.23-.03.75-.57,1.01-1.27,1.1-1.4.19-2.65-.26-3.87-.82-.29-.13-.36-.03-.41.2-.15.61-.32,1.22-.45,1.83-.1.44-.37.87.4,1.12,1.22.41,2.44.68,3.82.62Z"/>
      <path class="cls-1" d="m1218.58,362.96c0-.74.01-1.48,0-2.22,0-.34-.02-.6.45-.61,1.16-.04,2.33-.2,3.4.43,1,.59,1.28,1.56,1.17,2.62-.15,1.46-1.12,2.22-2.46,2.53-.76.18-1.55.2-2.33.08-.2-.03-.22-.16-.22-.33,0-.84,0-1.68,0-2.52Z"/>
    </g>
    <g id="ps-4" data-name="ps">
      <path class="cls-1" d="m1153.97,584.28h-.46c-.13-.02-.25-.06-.38-.06-9.58,0-19.16,0-28.74,0-.13,0-.25.04-.38.06h-.53c-.84-.26-1.4-.81-1.66-1.66v-30.66c.37-1.03,1.1-1.58,2.2-1.59,9.71,0,19.41,0,29.12,0,1.67,0,2.62.65,2.62,2.58-.02,9.57-.01,19.13,0,28.7,0,1.33-.45,2.27-1.8,2.63Zm-26.58-17.85c0,2.98,0,5.96,0,8.94,0,.24.05.32.3.31,1.2-.01,2.41-.01,3.61,0,.24,0,.29-.06.29-.29,0-2.01,0-4.02-.01-6.02,0-.26.07-.35.33-.32.87.11,1.73.03,2.6-.05,3.08-.26,5.86-2.13,6.26-5.45.32-2.7-1.42-5.6-4.05-6.24-2.69-.65-5.39-.42-8.08-.21-.38.03-1.23-.36-1.23.59-.01,2.91,0,5.82,0,8.74Zm18.01,9.5c.76.08,1.57-.12,2.39-.25,2.91-.47,4.45-3.96,2.76-6.36-.93-1.33-2.47-1.66-3.84-2.26-.63-.27-1.42-.46-1.28-1.41.1-.68.7-.83,1.25-.89.75-.09,1.47.22,2.2.27.38.03.8,1,1.16.08.27-.71.38-1.48.58-2.21.04-.17.1-.31-.12-.39-2.01-.68-4.04-.98-6.12-.28-2.5.84-3.78,3.58-2.59,5.68.92,1.62,2.6,2.12,4.19,2.74.58.23,1.25.45,1.23,1.23-.03.75-.57,1.01-1.27,1.1-1.4.19-2.65-.26-3.87-.82-.29-.13-.36-.03-.41.2-.15.61-.32,1.22-.45,1.83-.1.44-.37.87.4,1.12,1.22.41,2.44.68,3.82.62Z"/>
      <path class="cls-1" d="m1131.58,562.96c0-.74.01-1.48,0-2.22,0-.34-.02-.6.45-.61,1.16-.04,2.33-.2,3.4.43,1,.59,1.28,1.56,1.17,2.62-.15,1.46-1.12,2.22-2.46,2.53-.76.18-1.55.2-2.33.08-.2-.03-.22-.16-.22-.33,0-.84,0-1.68,0-2.52Z"/>
    </g>
    <g id="ps-5" data-name="ps">
      <path class="cls-1" d="m746.97,631.28h-.46c-.13-.02-.25-.06-.38-.06-9.58,0-19.16,0-28.74,0-.13,0-.25.04-.38.06h-.53c-.84-.26-1.4-.81-1.66-1.66v-30.66c.37-1.03,1.1-1.58,2.2-1.59,9.71,0,19.41,0,29.12,0,1.67,0,2.62.65,2.62,2.58-.02,9.57-.01,19.13,0,28.7,0,1.33-.45,2.27-1.8,2.63Zm-26.58-17.85c0,2.98,0,5.96,0,8.94,0,.24.05.32.3.31,1.2-.01,2.41-.01,3.61,0,.24,0,.29-.06.29-.29,0-2.01,0-4.02-.01-6.02,0-.26.07-.35.33-.32.87.11,1.73.03,2.6-.05,3.08-.26,5.86-2.13,6.26-5.45.32-2.7-1.42-5.6-4.05-6.24-2.69-.65-5.39-.42-8.08-.21-.38.03-1.23-.36-1.23.59-.01,2.91,0,5.82,0,8.74Zm18.01,9.5c.76.08,1.57-.12,2.39-.25,2.91-.47,4.45-3.96,2.76-6.36-.93-1.33-2.47-1.66-3.84-2.26-.63-.27-1.42-.46-1.28-1.41.1-.68.7-.83,1.25-.89.75-.09,1.47.22,2.2.27.38.03.8,1,1.16.08.27-.71.38-1.48.58-2.21.04-.17.1-.31-.12-.39-2.01-.68-4.04-.98-6.12-.28-2.5.84-3.78,3.58-2.59,5.68.92,1.62,2.6,2.12,4.19,2.74.58.23,1.25.45,1.23,1.23-.03.75-.57,1.01-1.27,1.1-1.4.19-2.65-.26-3.87-.82-.29-.13-.36-.03-.41.2-.15.61-.32,1.22-.45,1.83-.1.44-.37.87.4,1.12,1.22.41,2.44.68,3.82.62Z"/>
      <path class="cls-1" d="m724.58,609.96c0-.74.01-1.48,0-2.22,0-.34-.02-.6.45-.61,1.16-.04,2.33-.2,3.4.43,1,.59,1.28,1.56,1.17,2.62-.15,1.46-1.12,2.22-2.46,2.53-.76.18-1.55.2-2.33.08-.2-.03-.22-.16-.22-.33,0-.84,0-1.68,0-2.52Z"/>
    </g>
    <g id="ps-6" data-name="ps">
      <path class="cls-1" d="m215.97,629.28h-.46c-.13-.02-.25-.06-.38-.06-9.58,0-19.16,0-28.74,0-.13,0-.25.04-.38.06h-.53c-.84-.26-1.4-.81-1.66-1.66v-30.66c.37-1.03,1.1-1.58,2.2-1.59,9.71,0,19.41,0,29.12,0,1.67,0,2.62.65,2.62,2.58-.02,9.57-.01,19.13,0,28.7,0,1.33-.45,2.27-1.8,2.63Zm-26.58-17.85c0,2.98,0,5.96,0,8.94,0,.24.05.32.3.31,1.2-.01,2.41-.01,3.61,0,.24,0,.29-.06.29-.29,0-2.01,0-4.02-.01-6.02,0-.26.07-.35.33-.32.87.11,1.73.03,2.6-.05,3.08-.26,5.86-2.13,6.26-5.45.32-2.7-1.42-5.6-4.05-6.24-2.69-.65-5.39-.42-8.08-.21-.38.03-1.23-.36-1.23.59-.01,2.91,0,5.82,0,8.74Zm18.01,9.5c.76.08,1.57-.12,2.39-.25,2.91-.47,4.45-3.96,2.76-6.36-.93-1.33-2.47-1.66-3.84-2.26-.63-.27-1.42-.46-1.28-1.41.1-.68.7-.83,1.25-.89.75-.09,1.47.22,2.2.27.38.03.8,1,1.16.08.27-.71.38-1.48.58-2.21.04-.17.1-.31-.12-.39-2.01-.68-4.04-.98-6.12-.28-2.5.84-3.78,3.58-2.59,5.68.92,1.62,2.6,2.12,4.19,2.74.58.23,1.25.45,1.23,1.23-.03.75-.57,1.01-1.27,1.1-1.4.19-2.65-.26-3.87-.82-.29-.13-.36-.03-.41.2-.15.61-.32,1.22-.45,1.83-.1.44-.37.87.4,1.12,1.22.41,2.44.68,3.82.62Z"/>
      <path class="cls-1" d="m193.58,607.96c0-.74.01-1.48,0-2.22,0-.34-.02-.6.45-.61,1.16-.04,2.33-.2,3.4.43,1,.59,1.28,1.56,1.17,2.62-.15,1.46-1.12,2.22-2.46,2.53-.76.18-1.55.2-2.33.08-.2-.03-.22-.16-.22-.33,0-.84,0-1.68,0-2.52Z"/>
    </g>
    <path id="js" class="cls-1" d="m134.09,96.89c0,10.73,0,21.47,0,32.2,0,.22-.04.26-.26.26-10.73,0-21.47,0-32.2,0,0-10.7,0-21.4,0-32.1,0-.29.07-.36.36-.36,10.7,0,21.4,0,32.1,0Zm-7.29,29.92c.07,0,.41-.05.75-.07,3.14-.17,5.06-3.72,3.46-6.41-1.04-1.74-2.9-2.3-4.62-3.02-1.32-.55-1.91-1.54-1.31-2.45.62-.93,2.26-.69,3.03.43.09.14.15.31.38.16.67-.45,1.33-.89,2.01-1.31.14-.09.13-.11.06-.24-1.23-2.22-4.31-2.89-6.75-1.65-2.51,1.28-2.55,5.24-.33,6.84,1.25.9,2.7,1.35,4.03,2.06.58.31,1.02.74,1,1.45-.02.62-.41,1.03-.95,1.27-1.34.58-2.88.11-3.76-1.1-.18-.25-.3-.68-.79-.34-.55.38-1.13.71-1.72,1.02-.35.18-.31.36-.13.63,1.28,1.92,3.12,2.73,5.65,2.71Zm-7.49-9.37c0-2.04,0-3.68,0-5.33,0-.24-.06-.33-.32-.33-.86.02-1.71,0-2.57,0-.09,0-.22-.06-.22.13.02,3.33.05,6.67.04,10,0,.79.03,1.71-.93,2.06-.76.27-1.63.22-2.02-.54-.64-1.24-1.26-.59-1.95-.16-.3.19-.59.38-.9.55-.23.13-.28.22-.13.49,1.13,1.99,2.91,2.66,5.06,2.48,1.99-.16,3.45-1.43,3.75-3.19.37-2.17.09-4.37.18-6.16Z"/>
    <path id="js-2" data-name="js" class="cls-1" d="m21.85,505.63c0,5.43,0,10.85,0,16.28,0,.11-.02.13-.13.13-5.43,0-10.85,0-16.28,0,0-5.41,0-10.82,0-16.23,0-.15.04-.18.18-.18,5.41,0,10.82,0,16.23,0Zm-3.68,15.13s.21-.02.38-.03c1.59-.09,2.56-1.88,1.75-3.24-.53-.88-1.47-1.16-2.33-1.53-.67-.28-.97-.78-.66-1.24.31-.47,1.14-.35,1.53.22.05.07.07.16.19.08.34-.23.67-.45,1.02-.66.07-.04.07-.06.03-.12-.62-1.12-2.18-1.46-3.41-.83-1.27.65-1.29,2.65-.17,3.46.63.46,1.37.68,2.04,1.04.29.16.52.37.5.73-.01.32-.21.52-.48.64-.68.29-1.46.06-1.9-.56-.09-.13-.15-.34-.4-.17-.28.19-.57.36-.87.52-.18.09-.16.18-.07.32.65.97,1.58,1.38,2.86,1.37Zm-3.79-4.74c0-1.03,0-1.86,0-2.69,0-.12-.03-.17-.16-.17-.43,0-.86,0-1.3,0-.04,0-.11-.03-.11.06,0,1.68.03,3.37.02,5.05,0,.4.02.87-.47,1.04-.39.14-.82.11-1.02-.27-.32-.63-.64-.3-.98-.08-.15.1-.3.19-.45.28-.12.06-.14.11-.07.25.57,1.01,1.47,1.34,2.56,1.26,1.01-.08,1.74-.72,1.89-1.62.19-1.1.05-2.21.09-3.11Z"/>
    <path id="js-3" data-name="js" class="cls-1" d="m607.08,545.3c0,10.73,0,21.47,0,32.2,0,.22-.04.26-.26.26-10.73,0-21.47,0-32.2,0,0-10.7,0-21.4,0-32.1,0-.29.07-.36.36-.36,10.7,0,21.4,0,32.1,0Zm-7.29,29.92c.07,0,.41-.05.75-.07,3.14-.17,5.06-3.72,3.46-6.41-1.04-1.74-2.9-2.3-4.62-3.02-1.32-.55-1.91-1.54-1.31-2.45.62-.93,2.26-.69,3.03.43.09.14.15.31.38.16.67-.45,1.33-.89,2.01-1.31.14-.09.13-.11.06-.24-1.23-2.22-4.31-2.89-6.75-1.65-2.51,1.28-2.55,5.24-.33,6.84,1.25.9,2.7,1.35,4.03,2.06.58.31,1.02.74,1,1.45-.02.62-.41,1.03-.95,1.27-1.34.58-2.88.11-3.76-1.1-.18-.25-.3-.68-.79-.34-.55.38-1.13.71-1.72,1.02-.35.18-.31.36-.13.63,1.28,1.92,3.12,2.73,5.65,2.71Zm-7.49-9.37c0-2.04,0-3.68,0-5.33,0-.24-.06-.33-.32-.33-.86.02-1.71,0-2.57,0-.09,0-.22-.06-.22.13.02,3.33.05,6.67.04,10,0,.79.03,1.71-.93,2.06-.76.27-1.63.22-2.02-.54-.64-1.24-1.26-.59-1.95-.16-.3.19-.59.38-.9.55-.23.13-.28.22-.13.49,1.13,1.99,2.91,2.66,5.06,2.48,1.99-.16,3.45-1.43,3.75-3.19.37-2.17.09-4.37.18-6.16Z"/>
    <path id="js-4" data-name="js" class="cls-1" d="m1047.11,586.4c0,10.73,0,21.47,0,32.2,0,.22-.04.26-.26.26-10.73,0-21.47,0-32.2,0,0-10.7,0-21.4,0-32.1,0-.29.07-.36.36-.36,10.7,0,21.4,0,32.1,0Zm-7.29,29.92c.07,0,.41-.05.75-.07,3.14-.17,5.06-3.72,3.46-6.41-1.04-1.74-2.9-2.3-4.62-3.02-1.32-.55-1.91-1.54-1.31-2.45.62-.93,2.26-.69,3.03.43.09.14.15.31.38.16.67-.45,1.33-.89,2.01-1.31.14-.09.13-.11.06-.24-1.23-2.22-4.31-2.89-6.75-1.65-2.51,1.28-2.55,5.24-.33,6.84,1.25.9,2.7,1.35,4.03,2.06.58.31,1.02.74,1,1.45-.02.62-.41,1.03-.95,1.27-1.34.58-2.88.11-3.76-1.1-.18-.25-.3-.68-.79-.34-.55.38-1.13.71-1.72,1.02-.35.18-.31.36-.13.63,1.28,1.92,3.12,2.73,5.65,2.71Zm-7.49-9.37c0-2.04,0-3.68,0-5.33,0-.24-.06-.33-.32-.33-.86.02-1.71,0-2.57,0-.09,0-.22-.06-.22.13.02,3.33.05,6.67.04,10,0,.79.03,1.71-.93,2.06-.76.27-1.63.22-2.02-.54-.64-1.24-1.26-.59-1.95-.16-.3.19-.59.38-.9.55-.23.13-.28.22-.13.49,1.13,1.99,2.91,2.66,5.06,2.48,1.99-.16,3.45-1.43,3.75-3.19.37-2.17.09-4.37.18-6.16Z"/>
    <path id="js-5" data-name="js" class="cls-1" d="m1200.31,228.85c0,10.73,0,21.47,0,32.2,0,.22-.04.26-.26.26-10.73,0-21.47,0-32.2,0,0-10.7,0-21.4,0-32.1,0-.29.07-.36.36-.36,10.7,0,21.4,0,32.1,0Zm-7.29,29.92c.07,0,.41-.05.75-.07,3.14-.17,5.06-3.72,3.46-6.41-1.04-1.74-2.9-2.3-4.62-3.02-1.32-.55-1.91-1.54-1.31-2.45.62-.93,2.26-.69,3.03.43.09.14.15.31.38.16.67-.45,1.33-.89,2.01-1.31.14-.09.13-.11.06-.24-1.23-2.22-4.31-2.89-6.75-1.65-2.51,1.28-2.55,5.24-.33,6.84,1.25.9,2.7,1.35,4.03,2.06.58.31,1.02.74,1,1.45-.02.62-.41,1.03-.95,1.27-1.34.58-2.88.11-3.76-1.1-.18-.25-.3-.68-.79-.34-.55.38-1.13.71-1.72,1.02-.35.18-.31.36-.13.63,1.28,1.92,3.12,2.73,5.65,2.71Zm-7.49-9.37c0-2.04,0-3.68,0-5.33,0-.24-.06-.33-.32-.33-.86.02-1.71,0-2.57,0-.09,0-.22-.06-.22.13.02,3.33.05,6.67.04,10,0,.79.03,1.71-.93,2.06-.76.27-1.63.22-2.02-.54-.64-1.24-1.26-.59-1.95-.16-.3.19-.59.38-.9.55-.23.13-.28.22-.13.49,1.13,1.99,2.91,2.66,5.06,2.48,1.99-.16,3.45-1.43,3.75-3.19.37-2.17.09-4.37.18-6.16Z"/>
    <path id="js-6" data-name="js" class="cls-1" d="m1113.92,11.17c0,10.73,0,21.47,0,32.2,0,.22-.04.26-.26.26-10.73,0-21.47,0-32.2,0,0-10.7,0-21.4,0-32.1,0-.29.07-.36.36-.36,10.7,0,21.4,0,32.1,0Zm-7.29,29.92c.07,0,.41-.05.75-.07,3.14-.17,5.06-3.72,3.46-6.41-1.04-1.74-2.9-2.3-4.62-3.02-1.32-.55-1.91-1.54-1.31-2.45.62-.93,2.26-.69,3.03.43.09.14.15.31.38.16.67-.45,1.33-.89,2.01-1.31.14-.09.13-.11.06-.24-1.23-2.22-4.31-2.89-6.75-1.65-2.51,1.28-2.55,5.24-.33,6.84,1.25.9,2.7,1.35,4.03,2.06.58.31,1.02.74,1,1.45-.02.62-.41,1.03-.95,1.27-1.34.58-2.88.11-3.76-1.1-.18-.25-.3-.68-.79-.34-.55.38-1.13.71-1.72,1.02-.35.18-.31.36-.13.63,1.28,1.92,3.12,2.73,5.65,2.71Zm-7.49-9.37c0-2.04,0-3.68,0-5.33,0-.24-.06-.33-.32-.33-.86.02-1.71,0-2.57,0-.09,0-.22-.06-.22.13.02,3.33.05,6.67.04,10,0,.79.03,1.71-.93,2.06-.76.27-1.63.22-2.02-.54-.64-1.24-1.26-.59-1.95-.16-.3.19-.59.38-.9.55-.23.13-.28.22-.13.49,1.13,1.99,2.91,2.66,5.06,2.48,1.99-.16,3.45-1.43,3.75-3.19.37-2.17.09-4.37.18-6.16Z"/>
  </g>
</svg>