<svg version="1.2" xmlns="http://www.w3.org/2000/svg" viewBox="0 0 500 652" width="500" height="652">
	<title>vectors-svg</title>
	<style>
		.s0 { fill: #8f8f8f } 
		.s1 { fill: #7a7a7a } 
		.s2 { fill: #5c5c5c } 
	</style>
	<style>
      @keyframes movimento-cssEhtml {
        to {
          transform: translate(12px, 18px);
        }
      }

      @keyframes movimento-psEai {
        to {
          transform: translate(-12px, 4px);
        }
      }

      @keyframes movimento-jsEpb {
        to {
          transform: translate(8px, -16px);
        }
      }

      @keyframes fundo-colorido {
        to {
          filter: drop-shadow(0px 0px 40px #5d4caa);
        }
      }

      #PBI-Logo, #PBI-Logo-2, #PBI-Logo-3, #PBI-Logo-4, #PBI-Logo-5, #PBI-Logo-6, #js, #js-2, #js-3, #js-4, #js-5, #js-6{
        animation: movimento-jsEpb 2.5s ease-in-out infinite alternate, fundo-colorido 2s ease-in-out infinite alternate;
      }
      #html, #html-2, #html-3, #html-4, #html-5, #html-6, #css, #css-2, #css-3, #css-4, #css-5, #css-6, #css-7 {
        animation: movimento-cssEhtml 2.5s ease-in-out infinite alternate, fundo-colorido 1.5s ease-in-out infinite alternate;
      }
      #ai, #ai-2, #ai-3, #ai-4, #ai-5, #ai-6, #ps, #ps-2, #ps-3, #ps-4, #ps-5, #ps-6 {
        animation: movimento-psEai 2.5s ease-in-out infinite alternate, fundo-colorido 1s ease-in-out infinite alternate;
      }
    </style>
	<g id="logos">
		<g id="PBI-Logo">
			<path id="Rectangle" class="s0" d="m-49.8 4.8c0-0.9 0.7-1.6 1.6-1.6h10.1c0.9 0 1.6 0.7 1.6 1.6v35c0 0.9-0.7 1.6-1.6 1.6h-10.1c-0.9 0-1.6-0.7-1.6-1.6z"/>
			<path id="path-3" fill-rule="evenodd" class="s1" d="m-44.3 39.8v1.6h-11.7c-0.9 0-1.6-0.7-1.6-1.6v-25.5c0-0.9 0.7-1.6 1.6-1.6h10.1c0.9 0 1.6 0.7 1.6 1.6 0 0 0 25.5 0 25.5z"/>
			<path id="Combined-Shape" fill-rule="evenodd" class="s2" d="m-52 39.8v1.6h-11.7c-0.9 0-1.6-0.7-1.6-1.6v-15.9c0-0.9 0.7-1.6 1.6-1.6h10.1c0.9 0 1.6 0.7 1.6 1.6z"/>
		</g>
		<g id="PBI-Logo-2">
			<path id="Rectangle-2" class="s0" d="m936.4 26.7c0-0.9 0.7-1.6 1.6-1.6h10.1c0.9 0 1.6 0.7 1.6 1.6v35c0 0.9-0.7 1.6-1.6 1.6h-10.1c-0.9 0-1.6-0.7-1.6-1.6z"/>
			<path id="path-3-2" fill-rule="evenodd" class="s1" d="m941.9 61.7v1.6h-11.7c-0.9 0-1.6-0.7-1.6-1.6v-25.5c0-0.9 0.7-1.6 1.6-1.6h10.1c0.9 0 1.6 0.7 1.6 1.6z"/>
			<path id="Combined-Shape-2" fill-rule="evenodd" class="s2" d="m934.2 61.7v1.6h-11.7c-0.9 0-1.6-0.7-1.6-1.6v-15.9c0-0.9 0.7-1.6 1.6-1.6h10.1c0.9 0 1.6 0.7 1.6 1.6z"/>
		</g>
		<g id="PBI-Logo-3">
			<path id="Rectangle-3" class="s0" d="m1215.6 126.3c0-0.9 0.7-1.6 1.6-1.6h10.1c0.9 0 1.6 0.7 1.6 1.6v35c0 0.9-0.7 1.6-1.6 1.6h-10.1c-0.9 0-1.6-0.7-1.6-1.6z"/>
			<path id="path-3-3" fill-rule="evenodd" class="s1" d="m1221 161.3v1.6h-11.7c-0.8 0-1.6-0.7-1.6-1.6v-25.5c0-0.9 0.8-1.6 1.6-1.6h10.2c0.8 0 1.5 0.7 1.5 1.6z"/>
			<path id="Combined-Shape-3" fill-rule="evenodd" class="s2" d="m1213.3 161.3v1.6h-11.7c-0.8 0-1.6-0.7-1.6-1.6v-15.9c0-0.9 0.8-1.6 1.6-1.6h10.2c0.8 0 1.5 0.7 1.5 1.6z"/>
		</g>
		<g id="PBI-Logo-4">
			<path id="Rectangle-4" class="s0" d="m353.8 513.9c0-0.5 0.4-0.8 0.8-0.8h5.1c0.5 0 0.8 0.3 0.8 0.8v17.7c0 0.4-0.3 0.8-0.8 0.8h-5.1c-0.4 0-0.8-0.4-0.8-0.8z"/>
			<path id="path-3-4" fill-rule="evenodd" class="s1" d="m356.6 531.6v0.8h-6c-0.4 0-0.8-0.4-0.8-0.8v-12.9c0-0.5 0.4-0.8 0.8-0.8h5.2c0.4 0 0.8 0.3 0.8 0.8z"/>
			<path id="Combined-Shape-4" fill-rule="evenodd" class="s2" d="m352.7 531.6v0.8h-5.9c-0.5 0-0.8-0.4-0.8-0.8v-8.1c0-0.4 0.3-0.8 0.8-0.8h5.1c0.4 0 0.8 0.4 0.8 0.8z"/>
		</g>
		<g id="PBI-Logo-5">
			<path id="Rectangle-5" class="s0" d="m553.9 45.3c0-0.8 0.7-1.5 1.5-1.5h10.2c0.8 0 1.5 0.7 1.5 1.5v35.1c0 0.9-0.7 1.6-1.5 1.6h-10.2c-0.8 0-1.5-0.7-1.5-1.6z"/>
			<path id="path-3-5" fill-rule="evenodd" class="s1" d="m559.3 80.4v1.6h-11.7c-0.9 0-1.6-0.7-1.6-1.6v-25.6c0-0.8 0.7-1.5 1.6-1.5h10.1c0.9 0 1.6 0.7 1.6 1.5z"/>
			<path id="Combined-Shape-5" fill-rule="evenodd" class="s2" d="m551.6 80.4v1.6h-11.7c-0.9 0-1.6-0.7-1.6-1.6v-16c0-0.8 0.7-1.5 1.6-1.5h10.1c0.9 0 1.6 0.7 1.6 1.5z"/>
		</g>
		<g id="PBI-Logo-6">
			<path id="Rectangle-6" class="s0" d="m28.3 393.4c0-0.9 0.7-1.6 1.6-1.6h10.1c0.9 0 1.6 0.7 1.6 1.6v35.1c0 0.8-0.7 1.5-1.6 1.5h-10.1c-0.9 0-1.6-0.7-1.6-1.5z"/>
			<path id="path-3-6" fill-rule="evenodd" class="s1" d="m33.8 428.5v1.6h-11.7c-0.9 0-1.6-0.8-1.6-1.6v-25.6c0-0.8 0.7-1.5 1.6-1.5h10.1c0.9 0 1.6 0.7 1.6 1.5z"/>
			<path id="Combined-Shape-6" fill-rule="evenodd" class="s2" d="m26.1 428.5v1.6h-11.7c-0.9 0-1.6-0.8-1.6-1.6v-16c0-0.8 0.7-1.6 1.6-1.6h10.1c0.9 0 1.6 0.8 1.6 1.6z"/>
		</g>
		<path id="html" fill-rule="evenodd" class="s0" d="m61.3 9.8q15.2 0 30.4 0 0 1-0.1 1.9-0.2 3.3-0.5 6.7-0.4 6-0.8 12c-0.2 2.7-0.4 5.4-0.6 8.1-0.1 0.6 0.3 1.5-0.7 1.8-3.2 1.1-6.4 2.2-9.6 3.2-1.1 0.3-2.2 1.1-3.2 0.8-4.3-1.3-8.4-2.7-12.6-4.1-0.3-0.1-0.3-0.2-0.3-0.4q-0.2-2.6-0.4-5.3-0.4-6-0.9-12-0.2-2.6-0.3-5.2-0.2-3.7-0.5-7.5zm6.7 22.7l0.2 3.6c0 0.1 0.1 0.3 0.2 0.3q2.5 0.9 5.1 1.7c1.1 0.3 2.2 1.2 3.2 0.9 2.6-0.6 5.1-1.6 7.6-2.4 0.5-0.2 0.7-0.4 0.5-0.9q0.1-0.2 0.1-0.3 0.2-2.2 0.3-4.4 0-0.2 0.1-0.4v-0.6q0-0.2 0-0.4v-0.5q0.1-0.2 0.1-0.4 0-0.8 0.1-1.6 0-0.1 0-0.3 0.1-1 0.2-2.1c0-0.5-0.1-0.6-0.6-0.6-4.3 0-8.7 0-13 0.1-0.5 0-0.8-0.1-0.7-0.7q0 0-0.1 0-0.1-1.9-0.2-3.7c-0.1-0.6-0.1-0.9 0.7-0.9 4.6 0.1 9.2 0 13.8 0 0.3 0 0.5 0 0.5-0.4q0-1.1 0.2-2.2c0.2-1 0-1.5-1.3-1.5-5.8 0.1-11.5 0.1-17.3 0-1 0-1.1 0.3-1 1.1 0 0.2 0.1 0.3 0.1 0.4q0.1 1.9 0.2 3.8 0 0 0.1 0.1 0.2 3.7 0.4 7.4 0.1 0.2 0.1 0.4c-0.1 0.3 0.2 0.2 0.3 0.2q6.5 0 13.1 0c0.3 0 0.4 0.1 0.3 0.4q0 0.9-0.1 1.8 0 0.2-0.1 0.4 0 0.8 0 1.6c-0.1 0.7-0.1 1.1-1 1.3-1 0.2-2 0.7-3 1l-0.5 0.2q-1-0.3-2-0.6-1.2-0.4-2.5-0.9c-0.3-0.3 0.2-1-0.4-1.1-1.1-0.1-2.3 0-3.5 0q-0.3-0.1-0.3 0.2z"/>
		<path id="html-2" fill-rule="evenodd" class="s0" d="m-94 349.8q15.2 0 30.5 0-0.1 1-0.2 1.9-0.2 3.4-0.4 6.7-0.5 6-0.9 12c-0.2 2.7-0.3 5.4-0.6 8.2 0 0.6 0.4 1.4-0.7 1.7-3.2 1.1-6.3 2.2-9.5 3.2-1.1 0.3-2.2 1.2-3.3 0.8-4.2-1.2-8.4-2.7-12.6-4.1-0.2 0-0.3-0.1-0.3-0.4q-0.1-2.6-0.3-5.2-0.5-6.1-0.9-12.1-0.2-2.6-0.4-5.2-0.2-3.7-0.4-7.5zm6.6 22.8l0.2 3.5c0.1 0.1 0.1 0.3 0.2 0.4q2.6 0.8 5.2 1.7c1 0.3 2.1 1.1 3.2 0.8 2.5-0.6 5-1.6 7.5-2.4 0.5-0.2 0.7-0.4 0.6-0.9q0-0.1 0.1-0.3 0.1-2.2 0.2-4.4 0.1-0.2 0.1-0.4v-0.6q0-0.2 0.1-0.4v-0.5q0-0.2 0.1-0.4 0-0.8 0-1.6 0.1-0.1 0.1-0.2 0.1-1.1 0.1-2.2c0.1-0.4 0-0.6-0.5-0.6-4.3 0.1-8.7 0-13.1 0.1-0.5 0-0.7-0.1-0.6-0.6q-0.1-0.1-0.1-0.1-0.1-1.9-0.3-3.7c0-0.6 0-0.9 0.8-0.9 4.5 0.1 9.1 0.1 13.7 0.1 0.4 0 0.5 0 0.5-0.5q0-1.1 0.2-2.2c0.2-1 0.1-1.5-1.2-1.4-5.8 0.1-11.6 0-17.3 0-1 0-1.2 0.3-1 1.1 0 0.1 0.1 0.2 0.1 0.3q0.1 1.9 0.2 3.8 0 0.1 0 0.1 0.2 3.7 0.5 7.4 0 0.2 0.1 0.4c-0.1 0.3 0.1 0.2 0.3 0.2q6.5 0 13 0c0.4 0 0.4 0.1 0.4 0.4q-0.1 0.9-0.1 1.9-0.1 0.2-0.1 0.4-0.1 0.7-0.1 1.5c0 0.7-0.1 1.2-0.9 1.3-1.1 0.3-2.1 0.7-3.1 1l-0.4 0.2q-1-0.3-2-0.6-1.3-0.4-2.6-0.9c-0.2-0.3 0.3-1-0.3-1.1-1.2-0.1-2.4 0-3.5 0q-0.4-0.1-0.3 0.3z"/>
		<path id="html-3" fill-rule="evenodd" class="s0" d="m168 555.6q15.2 0 30.5 0-0.1 0.9-0.2 1.9-0.2 3.3-0.4 6.7-0.5 5.9-0.9 11.9c-0.2 2.8-0.3 5.5-0.6 8.2-0.1 0.6 0.4 1.5-0.7 1.8-3.2 1-6.3 2.1-9.5 3.1-1.1 0.4-2.2 1.2-3.3 0.9-4.2-1.3-8.4-2.8-12.6-4.1-0.2-0.1-0.3-0.2-0.3-0.4q-0.2-2.7-0.3-5.3-0.5-6-0.9-12.1-0.2-2.6-0.4-5.1-0.2-3.8-0.4-7.5zm6.6 22.7l0.2 3.6c0.1 0.1 0.1 0.3 0.2 0.3q2.6 0.9 5.1 1.7c1.1 0.3 2.2 1.2 3.3 0.9 2.5-0.7 5-1.6 7.5-2.4 0.5-0.2 0.7-0.4 0.6-0.9q0-0.2 0.1-0.4 0.1-2.2 0.2-4.4 0.1-0.2 0.1-0.4v-0.5q0-0.2 0.1-0.4v-0.6q0-0.2 0-0.4 0.1-0.8 0.1-1.5 0-0.2 0.1-0.3 0-1.1 0.1-2.1c0.1-0.5-0.1-0.6-0.5-0.6-4.4 0-8.7 0-13.1 0-0.5 0-0.8 0-0.7-0.6q0 0 0 0-0.1-1.9-0.3-3.8c-0.1-0.5 0-0.8 0.7-0.8 4.6 0 9.2 0 13.8 0 0.4 0 0.5 0 0.5-0.4q0-1.1 0.2-2.2c0.2-1.1 0.1-1.5-1.3-1.5-5.7 0.1-11.5 0.1-17.3 0-0.9 0-1.1 0.3-0.9 1.1 0 0.1 0.1 0.2 0.1 0.4q0 1.8 0.1 3.7 0.1 0.1 0.1 0.2 0.2 3.7 0.5 7.4 0 0.2 0 0.4c0 0.3 0.2 0.2 0.3 0.2q6.6 0 13.1 0c0.3 0 0.4 0.1 0.4 0.3q-0.1 1-0.2 1.9 0 0.2 0 0.4-0.1 0.8-0.1 1.6c0 0.6-0.1 1.1-0.9 1.3-1.1 0.2-2.1 0.6-3.1 1l-0.5 0.1q-0.9-0.3-1.9-0.5-1.3-0.5-2.6-0.9c-0.2-0.4 0.2-1.1-0.3-1.1-1.2-0.1-2.4-0.1-3.6 0q-0.3-0.1-0.2 0.2z"/>
		<path id="html-4" fill-rule="evenodd" class="s0" d="m1214.8 521.9q15.3 0 30.5 0 0 0.9-0.1 1.9-0.2 3.3-0.5 6.7-0.4 6-0.9 12c-0.1 2.7-0.3 5.4-0.5 8.1-0.1 0.6 0.3 1.5-0.7 1.8-3.2 1-6.4 2.1-9.6 3.1-1.1 0.4-2.2 1.2-3.3 0.9-4.2-1.3-8.3-2.7-12.5-4.1-0.3-0.1-0.3-0.2-0.3-0.4q-0.2-2.6-0.4-5.3-0.4-6-0.9-12.1-0.2-2.5-0.3-5.1-0.2-3.8-0.5-7.5zm6.7 22.7l0.2 3.6c0.1 0.1 0.1 0.3 0.2 0.3q2.5 0.9 5.1 1.7c1.1 0.3 2.2 1.2 3.2 0.9 2.6-0.6 5.1-1.6 7.6-2.4 0.5-0.2 0.7-0.4 0.6-0.9q0-0.2 0-0.3 0.2-2.2 0.3-4.4 0-0.2 0.1-0.4v-0.6q0-0.2 0-0.4v-0.5q0.1-0.2 0.1-0.4 0-0.8 0.1-1.6 0-0.1 0-0.3 0.1-1 0.2-2.1c0-0.5-0.1-0.6-0.6-0.6-4.3 0-8.7 0-13 0-0.5 0-0.8 0-0.7-0.6q0 0-0.1 0-0.1-1.9-0.2-3.7c-0.1-0.6-0.1-0.9 0.7-0.9 4.6 0.1 9.2 0 13.8 0 0.3 0 0.5 0 0.5-0.4q0-1.1 0.2-2.2c0.2-1 0-1.5-1.3-1.5-5.7 0.1-11.5 0.1-17.3 0-1 0-1.1 0.3-1 1.1 0.1 0.1 0.1 0.3 0.1 0.4q0.1 1.9 0.2 3.8 0 0 0.1 0.1 0.2 3.7 0.4 7.4 0.1 0.2 0.1 0.4c-0.1 0.3 0.2 0.2 0.3 0.2q6.5 0 13.1 0c0.3 0 0.4 0.1 0.3 0.4q0 0.9-0.1 1.8 0 0.2-0.1 0.4 0 0.8 0 1.6c-0.1 0.6-0.1 1.1-1 1.3-1 0.2-2 0.7-3 1l-0.5 0.1q-1-0.2-2-0.5-1.2-0.5-2.5-0.9c-0.3-0.3 0.2-1-0.4-1.1-1.1-0.1-2.3 0-3.5 0q-0.3-0.1-0.3 0.2z"/>
		<path id="html-5" fill-rule="evenodd" class="s0" d="m662.2 11.2q15.2 0 30.5 0-0.1 0.9-0.2 1.9-0.2 3.3-0.4 6.7-0.5 6-0.9 12c-0.2 2.7-0.3 5.4-0.6 8.1-0.1 0.6 0.3 1.5-0.7 1.8-3.2 1-6.4 2.1-9.6 3.1-1 0.4-2.1 1.2-3.2 0.9-4.2-1.3-8.4-2.7-12.6-4.1-0.2-0.1-0.3-0.2-0.3-0.4q-0.2-2.7-0.3-5.3-0.5-6-0.9-12.1-0.2-2.5-0.4-5.1-0.2-3.8-0.4-7.5zm6.6 22.7l0.2 3.6c0.1 0.1 0.1 0.3 0.2 0.3q2.6 0.9 5.1 1.7c1.1 0.3 2.2 1.2 3.2 0.9 2.6-0.7 5.1-1.6 7.6-2.4 0.5-0.2 0.7-0.4 0.6-0.9q0-0.2 0-0.4 0.2-2.1 0.3-4.3 0.1-0.2 0.1-0.5v-0.5q0-0.2 0.1-0.4v-0.5q0-0.2 0-0.5 0.1-0.7 0.1-1.5 0-0.1 0.1-0.3 0-1.1 0.1-2.1c0.1-0.5 0-0.6-0.5-0.6-4.4 0-8.7 0-13.1 0-0.5 0-0.8 0-0.7-0.6q0 0 0 0-0.1-1.9-0.3-3.8c0-0.5 0-0.8 0.7-0.8 4.6 0 9.2 0 13.8 0 0.4 0 0.5 0 0.5-0.4q0-1.1 0.2-2.2c0.2-1.1 0.1-1.5-1.3-1.5-5.7 0.1-11.5 0.1-17.3 0-0.9 0-1.1 0.3-0.9 1.1 0 0.1 0.1 0.2 0.1 0.4q0.1 1.9 0.1 3.8 0.1 0 0.1 0.1 0.2 3.7 0.5 7.4 0 0.2 0.1 0.4c-0.1 0.3 0.1 0.2 0.2 0.2q6.6 0 13.1 0c0.3 0 0.4 0.1 0.4 0.4q-0.1 0.9-0.2 1.8 0 0.2 0 0.4-0.1 0.8-0.1 1.6c0 0.6-0.1 1.1-0.9 1.3-1.1 0.2-2.1 0.7-3.1 1l-0.5 0.1q-0.9-0.2-1.9-0.5-1.3-0.5-2.6-0.9c-0.2-0.3 0.2-1.1-0.3-1.1-1.2-0.1-2.4 0-3.6 0q-0.3-0.1-0.2 0.2z"/>
		<path id="html-6" fill-rule="evenodd" class="s0" d="m60.2 321.2q7.7 0 15.4 0-0.1 0.5-0.1 1-0.1 1.7-0.2 3.4-0.3 3-0.5 6c-0.1 1.4-0.1 2.8-0.3 4.2 0 0.3 0.2 0.7-0.3 0.9-1.6 0.5-3.2 1-4.9 1.6-0.5 0.1-1.1 0.5-1.6 0.4-2.1-0.7-4.2-1.4-6.4-2.1-0.1 0-0.1-0.1-0.1-0.2q-0.1-1.3-0.2-2.7-0.2-3-0.4-6.1-0.1-1.3-0.2-2.6-0.1-1.9-0.2-3.7zm3.3 11.4l0.1 1.8c0 0.1 0.1 0.2 0.1 0.2q1.3 0.4 2.6 0.8c0.5 0.2 1.1 0.6 1.6 0.5 1.3-0.3 2.6-0.8 3.9-1.2 0.2-0.1 0.3-0.2 0.2-0.5q0.1-0.1 0.1-0.2 0-1.1 0.1-2.2 0-0.1 0-0.2v-0.2q0.1-0.2 0.1-0.3v-0.2q0-0.1 0-0.2 0-0.4 0-0.8 0.1-0.1 0.1-0.2 0-0.5 0.1-1.1c0-0.2-0.1-0.2-0.3-0.2q-3.3 0-6.6 0c-0.3 0-0.4-0.1-0.4-0.3q0 0 0-0.1-0.1-0.9-0.1-1.8c0-0.3 0-0.5 0.3-0.5q3.5 0 7 0c0.2 0 0.3 0 0.3-0.2q0-0.5 0.1-1.1c0.1-0.5 0-0.7-0.7-0.7q-4.3 0-8.7 0c-0.5 0-0.6 0.1-0.5 0.5 0 0.1 0.1 0.1 0.1 0.2q0 1 0 1.9 0.1 0.1 0.1 0.1 0.1 1.9 0.2 3.7 0 0.1 0.1 0.2c-0.1 0.2 0 0.1 0.1 0.1q3.3 0 6.6 0c0.2 0 0.2 0.1 0.2 0.2q0 0.5-0.1 0.9 0 0.2 0 0.3 0 0.4 0 0.7c0 0.4-0.1 0.6-0.5 0.7-0.5 0.1-1 0.3-1.5 0.5l-0.3 0.1q-0.5-0.2-1-0.3-0.6-0.2-1.3-0.4c-0.1-0.2 0.1-0.6-0.1-0.6-0.6-0.1-1.2 0-1.8 0q-0.2-0.1-0.2 0.1z"/>
		<path id="css" fill-rule="evenodd" class="s0" d="m-60.4 146.9q-0.2 2.8-0.5 5.5-0.1 2.2-0.3 4.3-0.3 2.8-0.5 5.5c0 0.2 0.1 0.4-0.1 0.5-1.3 0.3-2.5 0.6-3.8 1-1.4 0.5-2.7 0.9-4.2 0.3-1.1-0.5-2.4-0.7-3.6-1.1-0.3-0.1-0.8 0-0.9-0.4-0.1-0.7-0.2-1.5-0.2-2.3q-0.1-1.2-0.2-2.5-0.2-2.4-0.5-4.9-0.1-1.6-0.2-3.2-0.1-1.3-0.3-2.7 7.7 0 15.3 0zm-7.8 3.2q-2.2 0-4.4 0c-0.2 0-0.3 0.1-0.3 0.3 0.1 0.4 0 0.7 0.1 1 0.1 0.2-0.2 0.6 0.3 0.6 2.3-0.1 4.6 0 6.9-0.1 0.3 0 0.4 0.1 0.3 0.4 0 0.3 0 0.6 0 0.9-0.1 0.2 0.1 0.7-0.2 0.7-0.8 0.1-1.6 0-2.4 0q-2.3 0.1-4.5 0.1c-0.1 0-0.1 0-0.1 0.1q0 0.6 0.1 1.2c0 0.4 0.1 0.5 0.5 0.5q3.1 0 6.1 0 0.3 0 0.2 0.2-0.1 1-0.2 1.9c0 0.2 0 0.6-0.1 0.6-1.2 0.4-2.4 0.8-3.6 0.2-0.3-0.2-0.8 0-0.7-0.6 0-0.2-0.1-0.4-0.1-0.6 0-0.4 0-0.7-0.6-0.6-0.4 0-0.8 0-1.2 0-0.1 0-0.2 0-0.2 0.1 0.1 0.9 0.2 1.7 0.3 2.5 0 0.2-0.2 0.4 0.1 0.5q1.2 0.3 2.4 0.7c0.5 0.1 1.1 0.4 1.5 0.3 1.3-0.2 2.6-0.7 3.8-1 0.1 0 0.1-0.1 0.2-0.2q0.1-1.5 0.2-3.1 0.2-1.5 0.3-3c0.1-1 0.2-1.9 0.3-2.8 0-0.3 0.2-0.6-0.1-0.7-0.1-0.1-0.4-0.1-0.5-0.1q-2.2 0-4.4 0z"/>
		<path id="css-2" fill-rule="evenodd" class="s0" d="m-84 617.5q15.1 0 30.3 0-0.5 5.4-1 10.9-0.4 4.2-0.7 8.5c-0.4 3.6-0.7 7.3-1 10.9 0 0.3 0.2 0.8-0.2 0.9-2.5 0.7-5 1.3-7.5 2.1-2.7 0.8-5.3 1.6-8.2 0.4-2.3-0.9-4.8-1.3-7.1-2-0.7-0.2-1.7-0.1-1.8-0.8-0.3-1.5-0.3-3.1-0.5-4.6q-0.2-2.5-0.4-4.9-0.4-4.9-0.9-9.8c-0.1-2.1-0.3-4.2-0.4-6.2q-0.3-2.7-0.6-5.4zm14.8 6.4q-4.4 0-8.7-0.1c-0.5 0-0.6 0.2-0.5 0.6 0 0.7 0 1.4 0.1 2.1 0.1 0.3-0.3 1 0.7 1 4.5 0 9 0 13.5-0.1 0.7 0 0.7 0.2 0.7 0.7-0.1 0.6 0 1.3-0.2 1.8-0.1 0.5 0.2 1.3-0.3 1.4-1.6 0.2-3.2 0.1-4.7 0.1q-4.5 0.1-9 0.1c-0.2 0-0.2 0.1-0.2 0.3 0.1 0.8 0.2 1.6 0.2 2.4 0.1 0.6 0.2 0.9 1 0.9 4.1 0 8.2 0 12.2 0q0.5-0.1 0.4 0.3-0.2 1.9-0.5 3.9c0 0.3 0 1-0.2 1.1-2.3 0.7-4.6 1.6-7.1 0.4-0.6-0.3-1.5-0.1-1.4-1.2 0-0.4-0.1-0.8-0.1-1.2 0-0.8-0.1-1.4-1.2-1.2-0.8 0.1-1.6 0-2.4 0-0.2 0-0.3 0-0.3 0.3 0.1 1.7 0.2 3.3 0.4 5 0 0.3-0.2 0.7 0.3 0.9q2.3 0.7 4.7 1.3c1 0.3 2.1 0.9 3.1 0.7 2.5-0.5 5-1.3 7.5-2 0.2 0 0.2-0.1 0.2-0.3q0.3-3.1 0.6-6.2 0.2-3 0.5-6c0.2-1.9 0.4-3.7 0.5-5.6 0-0.4 0.4-1-0.1-1.3-0.3-0.2-0.7-0.1-1.1-0.1q-4.3 0-8.7 0z"/>
		<path id="css-3" fill-rule="evenodd" class="s0" d="m228.3 582.2q7.6 0 15.2 0-0.2 2.7-0.4 5.5-0.2 2.1-0.4 4.3-0.3 2.8-0.5 5.5c0 0.2 0.1 0.4-0.1 0.5-1.3 0.3-2.5 0.6-3.8 1-1.4 0.4-2.7 0.8-4.2 0.2-1.1-0.4-2.4-0.6-3.6-1-0.3-0.1-0.8 0-0.9-0.4-0.1-0.8-0.1-1.5-0.2-2.3q-0.1-1.3-0.2-2.5-0.2-2.5-0.4-4.9-0.2-1.6-0.3-3.2-0.1-1.4-0.2-2.7zm7.4 3.2q-2.2 0-4.4 0c-0.2 0-0.3 0.1-0.2 0.3 0 0.3 0 0.7 0 1 0.1 0.2-0.1 0.6 0.4 0.6 2.2-0.1 4.5-0.1 6.8-0.1 0.3 0 0.4 0.1 0.4 0.4-0.1 0.3-0.1 0.6-0.1 0.9-0.1 0.2 0.1 0.6-0.2 0.7-0.8 0-1.6 0-2.4 0q-2.2 0-4.5 0.1c-0.1 0-0.1 0-0.1 0.1q0.1 0.6 0.1 1.2c0 0.4 0.1 0.5 0.5 0.5q3.1 0 6.2 0 0.2 0 0.2 0.2-0.1 0.9-0.3 1.9c0 0.2 0 0.5-0.1 0.6-1.2 0.3-2.4 0.8-3.6 0.2-0.3-0.2-0.8-0.1-0.7-0.6 0-0.2 0-0.4 0-0.6 0-0.4-0.1-0.7-0.7-0.7-0.3 0.1-0.8 0.1-1.2 0-0.1 0-0.1 0.1-0.1 0.2 0 0.8 0.1 1.7 0.2 2.5 0 0.2-0.1 0.4 0.1 0.5q1.2 0.3 2.4 0.6c0.5 0.2 1.1 0.5 1.6 0.4 1.2-0.3 2.5-0.7 3.7-1 0.1-0.1 0.2-0.1 0.2-0.2q0.1-1.6 0.2-3.1 0.2-1.5 0.3-3.1c0.1-0.9 0.2-1.8 0.3-2.8 0-0.2 0.2-0.5-0.1-0.7-0.1 0-0.3 0-0.5 0q-2.2 0-4.4 0z"/>
		<path id="css-4" fill-rule="evenodd" class="s0" d="m920.6 545.7q15.1 0 30.3 0-0.5 5.4-1 10.9-0.4 4.2-0.7 8.5c-0.4 3.6-0.7 7.3-1 10.9 0 0.3 0.2 0.8-0.2 0.9-2.5 0.7-5 1.3-7.5 2.1-2.7 0.8-5.3 1.6-8.2 0.4-2.3-0.9-4.8-1.3-7.1-2.1-0.7-0.1-1.7 0-1.8-0.7-0.3-1.5-0.3-3.1-0.5-4.6q-0.2-2.5-0.4-4.9-0.4-4.9-0.9-9.8c-0.1-2.1-0.3-4.2-0.4-6.2q-0.3-2.7-0.6-5.4zm14.8 6.3q-4.4 0.1-8.7 0c-0.5 0-0.6 0.2-0.5 0.6 0 0.7 0 1.4 0.1 2.1 0.1 0.3-0.3 1 0.7 1 4.5-0.1 9 0 13.5-0.1 0.7 0 0.7 0.2 0.7 0.7-0.1 0.6 0 1.2-0.2 1.8-0.1 0.5 0.2 1.3-0.3 1.4-1.6 0.2-3.2 0.1-4.7 0.1q-4.5 0.1-9 0.1c-0.2 0-0.2 0-0.2 0.2 0.1 0.8 0.2 1.7 0.2 2.5 0.1 0.6 0.2 0.9 1 0.9 4.1-0.1 8.2 0 12.2-0.1q0.5 0 0.4 0.4-0.2 1.9-0.5 3.8c0 0.4 0 1.1-0.2 1.2-2.3 0.7-4.7 1.5-7.1 0.3-0.6-0.2-1.5 0-1.4-1.1 0-0.4-0.1-0.8-0.1-1.2 0-0.8-0.1-1.4-1.2-1.3-0.8 0.2-1.6 0.1-2.4 0.1-0.2 0-0.3 0-0.3 0.3 0.1 1.6 0.2 3.3 0.4 5 0 0.2-0.2 0.7 0.3 0.9q2.3 0.6 4.7 1.3c1 0.3 2.1 0.9 3.1 0.7 2.5-0.5 5-1.3 7.5-2 0.2-0.1 0.2-0.2 0.2-0.3q0.3-3.2 0.6-6.3 0.2-3 0.5-5.9c0.2-1.9 0.4-3.7 0.5-5.6 0-0.4 0.4-1-0.1-1.3-0.3-0.2-0.7-0.1-1.1-0.1q-4.3 0-8.7 0z"/>
		<path id="css-5" fill-rule="evenodd" class="s0" d="m426.7 456.4q15.1 0 30.3 0-0.5 5.4-1 10.9-0.4 4.2-0.7 8.5c-0.4 3.6-0.7 7.3-1 10.9 0 0.3 0.2 0.8-0.2 0.9-2.5 0.7-5 1.3-7.5 2.1-2.7 0.8-5.3 1.6-8.2 0.4-2.3-0.9-4.8-1.3-7.1-2.1-0.6-0.1-1.7 0-1.8-0.7-0.3-1.5-0.3-3.1-0.5-4.6q-0.2-2.5-0.4-4.9-0.4-4.9-0.8-9.8c-0.2-2.1-0.4-4.2-0.5-6.2q-0.3-2.7-0.6-5.4zm14.8 6.3q-4.4 0.1-8.7 0c-0.5 0-0.6 0.2-0.5 0.6 0 0.7 0 1.4 0.2 2.1 0 0.3-0.4 1 0.6 1 4.5-0.1 9 0 13.5-0.1 0.7 0 0.7 0.2 0.7 0.7-0.1 0.6 0 1.2-0.2 1.8-0.1 0.5 0.2 1.3-0.3 1.4-1.6 0.2-3.2 0.1-4.7 0.1q-4.5 0.1-9 0.1c-0.2 0-0.2 0-0.2 0.2 0.1 0.9 0.2 1.7 0.2 2.5 0.1 0.6 0.2 0.9 1 0.9 4.1-0.1 8.2 0 12.2-0.1q0.5 0 0.4 0.4-0.2 1.9-0.5 3.8c0 0.4 0 1.1-0.2 1.2-2.3 0.7-4.7 1.5-7.1 0.3-0.6-0.2-1.5 0-1.4-1.1 0-0.4-0.1-0.8-0.1-1.2 0-0.8-0.1-1.4-1.2-1.2-0.8 0.1-1.6 0-2.4 0-0.2 0-0.3 0-0.3 0.3 0.1 1.7 0.2 3.3 0.4 5 0.1 0.2-0.2 0.7 0.3 0.9q2.3 0.6 4.7 1.3c1 0.3 2.1 0.9 3.1 0.7 2.5-0.5 5-1.3 7.5-2 0.2-0.1 0.2-0.2 0.2-0.3q0.3-3.2 0.6-6.3 0.2-3 0.5-5.9c0.2-1.9 0.4-3.7 0.5-5.6 0-0.4 0.4-1-0.1-1.3-0.3-0.2-0.7-0.1-1.1-0.1q-4.3 0-8.7 0z"/>
		<path id="css-6" fill-rule="evenodd" class="s0" d="m447.7 121.6q-0.3 2.7-0.5 5.5-0.2 2.2-0.4 4.3-0.2 2.8-0.5 5.5c0 0.2 0.1 0.4-0.1 0.5-1.2 0.3-2.5 0.6-3.8 1-1.3 0.4-2.7 0.8-4.1 0.2-1.2-0.4-2.5-0.6-3.6-1-0.3-0.1-0.9 0-0.9-0.4-0.2-0.7-0.2-1.5-0.3-2.3q-0.1-1.3-0.2-2.5-0.2-2.5-0.4-4.9-0.1-1.6-0.3-3.2-0.1-1.4-0.2-2.7 7.6 0 15.3 0zm-7.9 3.2q-2.2 0-4.3 0c-0.3 0-0.3 0.1-0.3 0.3 0 0.3 0 0.7 0.1 1 0 0.2-0.2 0.6 0.3 0.6 2.3-0.1 4.6-0.1 6.9-0.1 0.3 0 0.3 0.1 0.3 0.4 0 0.3 0 0.6-0.1 0.9 0 0.2 0.1 0.6-0.2 0.7-0.8 0.1-1.6 0-2.4 0q-2.2 0-4.5 0.1-0.1 0-0.1 0.1 0.1 0.6 0.1 1.2c0.1 0.4 0.1 0.5 0.5 0.5 2.1 0 4.1 0 6.2 0q0.2 0 0.2 0.2-0.1 0.9-0.3 1.9c0 0.2 0 0.5-0.1 0.6-1.1 0.4-2.3 0.8-3.6 0.2-0.3-0.2-0.7 0-0.7-0.6 0-0.2 0-0.4 0-0.6 0-0.4-0.1-0.7-0.6-0.6-0.4 0-0.8 0-1.2 0-0.2 0-0.2 0-0.2 0.1 0.1 0.9 0.1 1.7 0.2 2.5 0 0.2-0.1 0.4 0.2 0.5q1.1 0.3 2.3 0.7c0.6 0.1 1.1 0.4 1.6 0.3 1.3-0.2 2.5-0.7 3.8-1 0.1 0 0.1-0.1 0.1-0.2q0.1-1.6 0.3-3.1 0.1-1.5 0.2-3.1c0.1-0.9 0.2-1.8 0.3-2.8 0-0.2 0.2-0.5 0-0.6-0.2-0.1-0.4-0.1-0.6-0.1q-2.2 0-4.4 0z"/>
		<path id="css-7" fill-rule="evenodd" class="s0" d="m433.1 349.8q-0.2 2.7-0.5 5.5-0.1 2.1-0.3 4.3-0.3 2.7-0.5 5.5c0 0.2 0.1 0.4-0.1 0.4-1.3 0.4-2.6 0.7-3.8 1.1-1.4 0.4-2.7 0.8-4.2 0.2-1.1-0.5-2.4-0.7-3.6-1-0.3-0.1-0.8 0-0.9-0.4-0.1-0.8-0.2-1.5-0.2-2.3q-0.1-1.3-0.2-2.5-0.2-2.5-0.5-4.9-0.1-1.6-0.2-3.2-0.1-1.4-0.3-2.7 7.7 0 15.3 0zm-7.8 3.2q-2.2 0-4.4 0c-0.2 0-0.3 0.1-0.3 0.3 0.1 0.3 0 0.7 0.1 1 0.1 0.2-0.2 0.6 0.3 0.6 2.3-0.1 4.6-0.1 6.9-0.1 0.3 0 0.4 0.1 0.3 0.4 0 0.3 0 0.6 0 0.9-0.1 0.2 0.1 0.6-0.2 0.7-0.8 0-1.6 0-2.4 0q-2.3 0-4.5 0-0.2 0-0.1 0.2 0 0.6 0.1 1.2c0 0.3 0.1 0.5 0.5 0.5 2 0 4.1 0 6.1 0q0.3 0 0.2 0.2-0.1 0.9-0.2 1.9c0 0.2 0 0.5-0.1 0.6-1.2 0.3-2.4 0.8-3.6 0.2-0.3-0.2-0.8-0.1-0.7-0.6 0-0.2-0.1-0.4-0.1-0.6 0-0.5 0-0.7-0.6-0.7-0.4 0.1-0.8 0.1-1.2 0-0.1 0-0.2 0.1-0.1 0.2 0 0.8 0.1 1.7 0.2 2.5 0 0.2-0.2 0.4 0.1 0.5q1.2 0.3 2.4 0.6c0.5 0.2 1.1 0.5 1.6 0.4 1.2-0.3 2.5-0.7 3.7-1 0.1-0.1 0.2-0.1 0.2-0.2q0.1-1.6 0.2-3.1 0.2-1.6 0.3-3.1c0.1-0.9 0.2-1.8 0.3-2.8 0-0.2 0.2-0.5-0.1-0.7-0.1 0-0.3 0-0.5 0q-2.2 0-4.4 0z"/>
		<g id="ai">
			<path id="Layer" fill-rule="evenodd" class="s0" d="m61.6 219.1v21.6c-0.1 0.2-0.1 0.4-0.2 0.6q-0.4 1.7-1.6 2.8-1.7 1.6-4.1 1.6-10.4 0-20.7 0c-0.5 0-1 0-1.4-0.1q-2.4-0.6-3.7-2.8c-0.4-0.7-0.7-1.5-0.7-2.3q-0.1-10.5 0-21c0-1.3 0.5-2.4 1.3-3.4 1.2-1.4 2.8-2 4.6-2q10.2 0 20.3 0c0.6 0 1.3 0 1.9 0.2q3.1 0.9 4.1 4c0.1 0.3 0 0.6 0.2 0.8zm-14 17.3q0.6 0 1.3 0c0.3 0 0.3-0.1 0.2-0.3-0.2-0.5-0.3-1-0.5-1.5q-1.2-3.3-2.4-6.6-1-2.8-2-5.6c0-0.2-0.1-0.2-0.3-0.2q-1.6 0-3.2 0c-0.2 0-0.3 0-0.3 0.2 0 0.4 0 0.7-0.1 1.1-0.4 0.9-0.6 1.8-1 2.7q-1 2.9-2 5.8-0.7 2-1.4 4c-0.1 0.3-0.1 0.4 0.3 0.4q1.1 0 2.2 0c0.3 0 0.4-0.1 0.5-0.3q0.4-1.4 0.8-2.8c0.1-0.1 0.1-0.2 0.3-0.2q2.3 0 4.6 0c0.2 0 0.3 0 0.3 0.2q0.5 1.4 1 2.8c0.1 0.2 0.2 0.3 0.4 0.3q0.6 0 1.3 0zm3-0.3c0 0.2 0.1 0.3 0.4 0.3q1.1 0 2.2 0c0.3 0 0.4-0.1 0.4-0.4q0-3.9 0-7.7 0-1.2 0-2.3c0-0.2 0-0.4-0.2-0.4q-1.3 0-2.6 0c-0.1 0-0.2 0.1-0.2 0.2q0 2.6 0 5.2 0 2.5 0 5.1zm1.5-15c-0.9-0.1-1.7 0.9-1.7 1.6 0.1 1.1 0.7 1.8 1.7 1.8 1.2 0 1.7-0.8 1.7-1.7 0-1-0.5-1.7-1.7-1.7z"/>
			<path id="Layer" class="s0" d="m44.1 230.3q-1.7 0-3.3 0c-0.3 0-0.1-0.2-0.1-0.3q0.3-1.2 0.7-2.3 0.4-1.4 0.8-2.7c0-0.1 0-0.2 0.1-0.2 0.1 0 0.1 0.1 0.1 0.2q0.8 2.6 1.6 5.3z"/>
		</g>
		<g id="ai-2">
			<path id="Layer" fill-rule="evenodd" class="s0" d="m35.2 522.3v21.5c-0.1 0.2-0.1 0.4-0.2 0.7q-0.4 1.6-1.6 2.8-1.7 1.6-4.2 1.6-10.3 0-20.6 0c-0.5 0-1 0-1.5-0.2q-2.4-0.6-3.6-2.7c-0.5-0.7-0.8-1.5-0.8-2.3q0-10.5 0-21c0-1.3 0.5-2.4 1.3-3.4 1.2-1.4 2.8-2.1 4.7-2.1q10.1 0 20.3 0c0.6 0 1.2 0 1.9 0.2q3.1 0.9 4.1 4c0 0.3 0 0.6 0.2 0.9zm-14 17.3q0.6 0 1.2 0c0.3 0 0.3-0.1 0.3-0.3-0.2-0.5-0.3-1-0.5-1.5q-1.2-3.3-2.4-6.7-1-2.7-2-5.5c0-0.2-0.1-0.3-0.3-0.3q-1.6 0-3.3 0c-0.1 0-0.2 0.1-0.2 0.3 0 0.3 0 0.7-0.2 1-0.3 0.9-0.6 1.9-0.9 2.8q-1 2.8-2 5.7-0.7 2.1-1.4 4.1c-0.1 0.3-0.1 0.4 0.2 0.4q1.1 0 2.2 0c0.3 0 0.5-0.1 0.5-0.4q0.5-1.4 0.9-2.7c0.1-0.2 0.1-0.3 0.3-0.3q2.3 0 4.6 0c0.2 0 0.3 0.1 0.3 0.2q0.5 1.5 1 2.9c0 0.2 0.2 0.3 0.4 0.3q0.6 0 1.3 0zm3-0.4c0 0.3 0 0.4 0.3 0.4q1.1 0 2.2 0c0.4 0 0.5-0.1 0.5-0.5q0-3.8 0-7.6 0-1.2 0-2.3c0-0.2 0-0.4-0.2-0.4q-1.3 0-2.6 0c-0.2 0-0.2 0-0.2 0.2q0 2.6 0 5.1 0 2.6 0 5.1zm1.5-14.9q0 0 0 0 0 0 0 0zm-1.7 1.6c0.1 1.1 0.7 1.8 1.7 1.8 1.2 0 1.7-0.9 1.7-1.8 0-0.9-0.6-1.6-1.7-1.6-0.9-0.1-1.7 0.8-1.7 1.6z"/>
			<path id="Layer" class="s0" d="m17.6 533.5q-1.6 0-3.2 0c-0.3 0-0.2-0.3-0.1-0.3q0.3-1.2 0.7-2.3 0.4-1.4 0.8-2.8c0 0 0-0.2 0.1-0.2 0 0 0.1 0.1 0.1 0.2q0.8 2.7 1.6 5.4z"/>
		</g>
		<g id="ai-3">
			<path id="Layer" fill-rule="evenodd" class="s0" d="m155.9 622.3v10.9q-0.1 0.1-0.1 0.3-0.2 0.8-0.8 1.4-0.9 0.8-2.1 0.8-5.3 0-10.5 0c-0.2 0-0.5 0-0.7 0q-1.2-0.4-1.9-1.4c-0.2-0.4-0.3-0.8-0.3-1.2q0-5.3 0-10.6c0-0.7 0.2-1.2 0.6-1.7 0.6-0.8 1.4-1.1 2.4-1.1q5.1 0 10.2 0c0.4 0 0.7 0 1 0.1q1.6 0.5 2 2.1c0.1 0.1 0.1 0.3 0.2 0.4zm-7.1 8.7q0.3 0 0.6 0c0.2 0 0.2 0 0.1-0.1q-0.1-0.4-0.2-0.8-0.6-1.7-1.2-3.4-0.5-1.4-1-2.8 0-0.1-0.2-0.1-0.8 0-1.6 0c-0.1 0-0.1 0-0.1 0.1q0 0.3-0.1 0.6-0.3 0.7-0.5 1.3-0.5 1.5-1 3-0.4 1-0.7 2c-0.1 0.1-0.1 0.2 0.1 0.2q0.6 0 1.1 0c0.2 0 0.2 0 0.3-0.2q0.2-0.7 0.4-1.4c0 0 0-0.1 0.2-0.1q1.1 0 2.3 0 0.1 0 0.1 0.1 0.3 0.7 0.5 1.5 0.1 0.1 0.2 0.1 0.3 0 0.7 0zm1.5-2.7q0 1.2 0 2.5c0 0.2 0 0.2 0.2 0.2q0.5 0 1.1 0c0.2 0 0.2 0 0.2-0.2q0-1.9 0-3.9 0-0.6 0-1.1c0-0.1 0-0.2-0.1-0.2q-0.7 0-1.3 0-0.1-0.1-0.1 0.1 0 1.3 0 2.6zm0.8-5c-0.5-0.1-0.9 0.4-0.9 0.8 0 0.6 0.3 0.9 0.9 0.9 0.6 0 0.8-0.4 0.8-0.9 0-0.5-0.3-0.8-0.8-0.8z"/>
			<path id="Layer" class="s0" d="m147 627.9q-0.8 0-1.6 0c-0.2 0-0.1-0.1-0.1-0.1q0.1-0.6 0.3-1.2 0.2-0.7 0.4-1.4c0 0 0-0.1 0.1-0.1q0 0 0 0.1 0.4 1.4 0.9 2.7z"/>
		</g>
		<g id="ai-4">
			<path id="Layer" fill-rule="evenodd" class="s0" d="m1243.1 22.3v21.5c-0.1 0.2-0.2 0.5-0.2 0.7q-0.4 1.6-1.6 2.8-1.8 1.6-4.2 1.6-10.3 0-20.6 0c-0.5 0-1 0-1.5-0.1q-2.4-0.7-3.7-2.8c-0.4-0.7-0.7-1.5-0.7-2.3q0-10.5 0-21c0-1.3 0.5-2.4 1.3-3.4 1.2-1.4 2.8-2.1 4.7-2.1q10.1 0 20.2 0c0.7 0 1.3 0.1 1.9 0.2q3.2 0.9 4.1 4.1c0.1 0.2 0.1 0.5 0.3 0.8zm-14.1 17.3q0.7 0 1.3 0c0.3 0 0.3-0.1 0.2-0.3-0.1-0.5-0.3-1-0.4-1.5q-1.2-3.3-2.4-6.7-1-2.7-2-5.5c-0.1-0.2-0.1-0.3-0.3-0.3q-1.7 0-3.3 0c-0.2 0-0.2 0.1-0.2 0.3 0 0.3-0.1 0.7-0.2 1-0.3 0.9-0.6 1.9-0.9 2.8q-1 2.9-2 5.7-0.7 2.1-1.4 4.1c-0.1 0.3-0.1 0.4 0.2 0.4q1.1 0 2.2 0c0.3 0 0.4-0.1 0.5-0.4q0.4-1.3 0.9-2.7c0-0.2 0.1-0.3 0.3-0.3q2.3 0.1 4.6 0c0.2 0 0.2 0.1 0.3 0.2q0.5 1.5 0.9 2.9c0.1 0.2 0.2 0.3 0.5 0.3q0.6 0 1.2 0zm3.1-0.4c0 0.3 0 0.4 0.3 0.4q1.1 0 2.2 0c0.4 0 0.5-0.1 0.5-0.5q0-3.8 0-7.6 0-1.2 0-2.3c0-0.2 0-0.4-0.3-0.4q-1.2 0-2.5 0c-0.2 0-0.2 0-0.2 0.2q0 2.6 0 5.1 0 2.6 0 5.1zm1.5-14.9c-1-0.1-1.7 0.8-1.7 1.6 0 1.1 0.6 1.8 1.7 1.8 1.1 0 1.6-0.9 1.6-1.7 0.1-1-0.5-1.7-1.6-1.7z"/>
			<path id="Layer" class="s0" d="m1225.5 33.5q-1.6 0-3.2 0c-0.3 0-0.2-0.3-0.1-0.3q0.3-1.2 0.6-2.3 0.5-1.4 0.9-2.7c0-0.1 0-0.2 0.1-0.2 0 0 0 0.1 0.1 0.1q0.8 2.7 1.6 5.4z"/>
		</g>
		<g id="ai-5">
			<path id="Layer" fill-rule="evenodd" class="s0" d="m351.1 5.1v21.5c-0.1 0.2-0.2 0.4-0.2 0.6q-0.4 1.7-1.6 2.8-1.8 1.7-4.2 1.7-10.3-0.1-20.6 0c-0.5 0-1-0.1-1.5-0.2q-2.4-0.6-3.7-2.7c-0.4-0.8-0.7-1.5-0.7-2.4q0-10.5 0-20.9c0-1.3 0.5-2.5 1.3-3.4 1.2-1.5 2.8-2.1 4.7-2.1q10.1 0 20.3 0c0.6 0 1.2 0 1.8 0.2q3.2 0.9 4.1 4c0.1 0.3 0.1 0.6 0.3 0.8zm-14.1 17.4q0.7 0 1.3 0c0.3 0 0.3-0.1 0.2-0.4-0.1-0.5-0.3-1-0.5-1.4q-1.1-3.4-2.3-6.7-1-2.8-2-5.5c-0.1-0.2-0.1-0.3-0.3-0.3q-1.7 0-3.3 0c-0.2 0-0.2 0.1-0.2 0.2 0 0.4-0.1 0.7-0.2 1.1-0.3 0.9-0.6 1.8-0.9 2.7q-1 2.9-2 5.8-0.7 2-1.4 4.1c-0.1 0.2-0.1 0.4 0.2 0.4q1.1-0.1 2.2 0c0.3 0 0.4-0.1 0.5-0.4q0.4-1.4 0.9-2.7c0-0.2 0.1-0.3 0.3-0.3q2.3 0 4.6 0c0.2 0 0.2 0 0.3 0.2q0.5 1.4 1 2.9c0 0.2 0.1 0.3 0.4 0.3q0.6-0.1 1.2 0zm3-0.4c0 0.3 0.1 0.4 0.4 0.4q1.1-0.1 2.2 0c0.4 0 0.5-0.1 0.5-0.5q0-3.8 0-7.7 0-1.1 0-2.3c0-0.2 0-0.3-0.3-0.3q-1.2 0-2.5 0c-0.2 0-0.3 0-0.3 0.2q0.1 2.5 0 5.1 0.1 2.6 0 5.1zm1.6-14.9c-1-0.1-1.7 0.8-1.7 1.5 0.1 1.2 0.6 1.9 1.7 1.8 1.1 0 1.6-0.8 1.6-1.7 0.1-0.9-0.5-1.6-1.6-1.6z"/>
			<path id="Layer" class="s0" d="m333.5 16.3q-1.6-0.1-3.2-0.1c-0.4 0-0.2-0.2-0.2-0.3q0.4-1.1 0.7-2.3 0.5-1.3 0.9-2.7c0-0.1 0-0.2 0.1-0.2 0 0 0 0.1 0.1 0.2q0.8 2.7 1.6 5.4z"/>
		</g>
		<g id="ps">
			<path id="Layer" fill-rule="evenodd" class="s0" d="m189.7 32.7h-0.2q-0.1 0-0.2 0-7.3 0-14.5 0-0.1 0-0.2 0h-0.3q-0.6-0.2-0.8-0.8v-15.5q0.3-0.8 1.1-0.8 7.3 0 14.7 0c0.8 0 1.3 0.3 1.3 1.3q0 7.2 0 14.5c0 0.7-0.2 1.1-0.9 1.3zm-13.4-4.5c0 0.1 0 0.2 0.1 0.2q1 0 1.9 0c0.1 0 0.1-0.1 0.1-0.2q0-1.5 0-3c0-0.2 0-0.2 0.2-0.2 0.4 0.1 0.8 0 1.3 0 1.6-0.1 2.9-1.1 3.2-2.8 0.1-1.3-0.8-2.8-2.1-3.1-1.4-0.3-2.7-0.2-4.1-0.1-0.2 0-0.6-0.2-0.6 0.3q0 2.2 0 4.4 0 2.3 0 4.5zm9.1 0.3c0.4 0 0.8-0.1 1.2-0.1 1.5-0.3 2.3-2 1.4-3.3-0.5-0.6-1.2-0.8-1.9-1.1-0.4-0.1-0.8-0.2-0.7-0.7 0.1-0.4 0.4-0.4 0.6-0.5 0.4 0 0.8 0.1 1.2 0.2 0.1 0 0.4 0.5 0.5 0 0.2-0.3 0.2-0.7 0.3-1.1 0-0.1 0.1-0.2 0-0.2-1.1-0.3-2.1-0.5-3.1-0.1-1.3 0.4-1.9 1.8-1.3 2.8 0.4 0.9 1.3 1.1 2.1 1.4 0.3 0.1 0.6 0.2 0.6 0.6 0 0.4-0.3 0.5-0.6 0.6-0.8 0.1-1.4-0.1-2-0.4-0.2-0.1-0.2 0-0.2 0.1q-0.1 0.4-0.2 0.9c-0.1 0.2-0.2 0.5 0.2 0.6 0.6 0.2 1.2 0.3 1.9 0.3z"/>
			<path id="Layer" class="s0" d="m178.4 21.9q0-0.5 0-1.1c0-0.2 0-0.3 0.2-0.3 0.6 0 1.2-0.1 1.8 0.2 0.5 0.3 0.6 0.8 0.5 1.3 0 0.8-0.5 1.2-1.2 1.3q-0.6 0.2-1.2 0.1c-0.1-0.1-0.1-0.1-0.1-0.2q0-0.6 0-1.3z"/>
		</g>
		<g id="ps-2">
			<path id="Layer" fill-rule="evenodd" class="s0" d="m-28.7 272.7h-0.4c-0.2 0-0.3 0-0.4 0q-14.4 0-28.8 0c-0.1 0-0.2 0-0.3 0h-0.6q-1.2-0.4-1.6-1.6v-30.7q0.5-1.5 2.2-1.6 14.5 0 29.1 0c1.7 0 2.6 0.7 2.6 2.6q0 14.4 0 28.7c0 1.3-0.4 2.3-1.8 2.6zm-26.6-17.8q0 4.5 0 8.9c0 0.3 0.1 0.3 0.3 0.3q1.8 0 3.6 0c0.3 0 0.3 0 0.3-0.3q0-3 0-6c0-0.2 0.1-0.3 0.3-0.3 0.9 0.1 1.8 0 2.7 0 3-0.3 5.8-2.2 6.2-5.5 0.3-2.7-1.4-5.6-4-6.2-2.7-0.7-5.4-0.5-8.1-0.2-0.4 0-1.3-0.4-1.3 0.5q0 4.4 0 8.8zm18.1 9.5q0 0 0 0 0 0 0 0zm2.3-0.3c2.9-0.4 4.5-3.9 2.8-6.3-0.9-1.4-2.5-1.7-3.9-2.3-0.6-0.3-1.4-0.5-1.2-1.4 0.1-0.7 0.7-0.8 1.2-0.9 0.8-0.1 1.5 0.2 2.2 0.3 0.4 0 0.8 1 1.2 0.1 0.2-0.7 0.4-1.5 0.6-2.2 0-0.2 0.1-0.4-0.2-0.4-2-0.7-4-1-6.1-0.3-2.5 0.8-3.8 3.6-2.6 5.7 0.9 1.6 2.6 2.1 4.2 2.7 0.6 0.2 1.3 0.5 1.2 1.2 0 0.8-0.5 1-1.2 1.1-1.4 0.2-2.7-0.2-3.9-0.8-0.3-0.1-0.4 0-0.4 0.2q-0.2 0.9-0.5 1.8c-0.1 0.5-0.3 0.9 0.4 1.2 1.3 0.4 2.5 0.6 3.8 0.6 0.8 0.1 1.6-0.1 2.4-0.3z"/>
			<path id="Layer" class="s0" d="m-51.1 251.4q0-1.1 0-2.2c0-0.4 0-0.6 0.5-0.6 1.1-0.1 2.3-0.2 3.4 0.4 1 0.6 1.3 1.6 1.1 2.6-0.1 1.5-1.1 2.3-2.4 2.6q-1.2 0.2-2.3 0c-0.2 0-0.3-0.1-0.3-0.3q0-1.2 0-2.5z"/>
		</g>
		<g id="ps-3">
			<path id="Layer" fill-rule="evenodd" class="s0" d="m1240.5 384.3c-0.1 0-0.2-0.1-0.4-0.1q-14.3 0-28.7 0c-0.1 0-0.3 0.1-0.4 0.1h-0.5q-1.3-0.4-1.7-1.7v-30.6q0.6-1.6 2.2-1.6 14.6 0 29.1 0c1.7 0 2.7 0.6 2.7 2.5q-0.1 14.4 0 28.7c0 1.4-0.5 2.3-1.8 2.7zm-26.2-17.9q0 4.5 0 9c0 0.2 0.1 0.3 0.3 0.3q1.8 0 3.6 0c0.3 0 0.3-0.1 0.3-0.3q0-3 0-6c0-0.3 0.1-0.4 0.4-0.4 0.8 0.2 1.7 0.1 2.6 0 3-0.3 5.8-2.1 6.2-5.5 0.3-2.7-1.4-5.6-4-6.2-2.7-0.6-5.4-0.4-8.1-0.2-0.4 0-1.2-0.4-1.2 0.6q0 4.4 0 8.7zm18 9.5q0 0 0 0 0 0 0 0zm2.3-0.2c2.9-0.5 4.5-4 2.8-6.4-0.9-1.3-2.5-1.6-3.9-2.2-0.6-0.3-1.4-0.5-1.2-1.5 0.1-0.6 0.7-0.8 1.2-0.8 0.8-0.1 1.5 0.2 2.2 0.2 0.4 0.1 0.8 1 1.2 0.1 0.2-0.7 0.4-1.5 0.6-2.2 0-0.2 0.1-0.3-0.2-0.4-2-0.7-4-1-6.1-0.3-2.5 0.9-3.8 3.6-2.6 5.7 0.9 1.6 2.6 2.1 4.2 2.7 0.6 0.3 1.3 0.5 1.2 1.3 0 0.7-0.5 1-1.2 1.1-1.4 0.2-2.7-0.3-3.9-0.8-0.3-0.2-0.4-0.1-0.4 0.2q-0.2 0.9-0.5 1.8c-0.1 0.4-0.3 0.9 0.4 1.1 1.3 0.4 2.5 0.7 3.8 0.6 0.8 0.1 1.6-0.1 2.4-0.2z"/>
			<path id="Layer" class="s0" d="m1218.6 363q0-1.2 0-2.3c0-0.3 0-0.6 0.4-0.6 1.2 0 2.4-0.2 3.4 0.5 1 0.5 1.3 1.5 1.2 2.6-0.1 1.4-1.1 2.2-2.5 2.5q-1.1 0.3-2.3 0.1c-0.2 0-0.2-0.2-0.2-0.3q0-1.3 0-2.6z"/>
		</g>
		<g id="ps-4">
			<path id="Layer" fill-rule="evenodd" class="s0" d="m454.5 601.3c-0.1 0-0.2-0.1-0.4-0.1q-14.3 0-28.7 0c-0.1 0-0.3 0.1-0.4 0.1h-0.5q-1.3-0.4-1.7-1.7v-30.6q0.6-1.6 2.2-1.6 14.6 0 29.1 0c1.7 0 2.7 0.6 2.7 2.6q-0.1 14.3 0 28.7c0 1.3-0.5 2.2-1.8 2.6zm-26.2-17.9q0 4.5 0 9c0 0.2 0.1 0.3 0.3 0.3q1.8 0 3.6 0c0.3 0 0.3-0.1 0.3-0.3q0-3 0-6c0-0.3 0.1-0.4 0.4-0.3 0.8 0.1 1.7 0 2.6-0.1 3-0.3 5.8-2.1 6.2-5.4 0.3-2.7-1.4-5.6-4-6.3-2.7-0.6-5.4-0.4-8.1-0.2-0.4 0-1.2-0.4-1.2 0.6q0 4.4 0 8.7zm18 9.5q0 0 0 0 0 0 0 0zm2.3-0.2c2.9-0.5 4.5-4 2.8-6.4-0.9-1.3-2.5-1.6-3.9-2.2-0.6-0.3-1.4-0.5-1.2-1.4 0.1-0.7 0.7-0.9 1.2-0.9 0.8-0.1 1.5 0.2 2.2 0.2 0.4 0.1 0.8 1 1.2 0.1 0.2-0.7 0.4-1.5 0.6-2.2 0-0.2 0.1-0.3-0.2-0.4-2-0.7-4-1-6.1-0.3-2.5 0.9-3.8 3.6-2.6 5.7 0.9 1.6 2.6 2.1 4.2 2.8 0.6 0.2 1.3 0.4 1.2 1.2 0 0.7-0.5 1-1.2 1.1-1.4 0.2-2.7-0.3-3.9-0.8-0.3-0.2-0.4-0.1-0.4 0.2q-0.2 0.9-0.5 1.8c-0.1 0.4-0.3 0.9 0.4 1.1 1.3 0.4 2.5 0.7 3.8 0.6 0.8 0.1 1.6-0.1 2.4-0.2z"/>
			<path id="Layer" class="s0" d="m432.6 580q0-1.1 0-2.3c0-0.3 0-0.6 0.4-0.6 1.2 0 2.4-0.2 3.4 0.5 1 0.5 1.3 1.5 1.2 2.6-0.1 1.4-1.1 2.2-2.5 2.5q-1.1 0.3-2.3 0.1c-0.2 0-0.2-0.2-0.2-0.3q0-1.3 0-2.6z"/>
		</g>
		<g id="ps-5">
			<path id="Layer" fill-rule="evenodd" class="s0" d="m747 631.3h-0.5q-0.2-0.1-0.4-0.1-14.3 0-28.7 0c-0.1 0-0.3 0.1-0.4 0.1h-0.5q-1.3-0.4-1.7-1.7v-30.6q0.6-1.6 2.2-1.6 14.6 0 29.1 0c1.7 0 2.7 0.6 2.7 2.6q-0.1 14.3 0 28.7c0 1.3-0.5 2.2-1.8 2.6zm-26.6-17.9q0 4.5 0 9c0 0.2 0 0.3 0.3 0.3q1.8 0 3.6 0c0.2 0 0.3-0.1 0.3-0.3q0-3 0-6c0-0.3 0-0.4 0.3-0.3 0.9 0.1 1.7 0 2.6-0.1 3.1-0.3 5.9-2.1 6.3-5.4 0.3-2.8-1.4-5.7-4.1-6.3-2.7-0.6-5.4-0.4-8.1-0.2-0.3 0-1.2-0.4-1.2 0.6q0 4.4 0 8.7zm18.1 9.5q-0.1 0-0.1 0 0 0 0 0zm2.4-0.2c2.9-0.5 4.4-4 2.7-6.4-0.9-1.3-2.4-1.6-3.8-2.2-0.6-0.3-1.4-0.5-1.3-1.5 0.1-0.6 0.7-0.8 1.3-0.8 0.7-0.1 1.4 0.2 2.2 0.2 0.3 0.1 0.8 1 1.1 0.1 0.3-0.7 0.4-1.5 0.6-2.2 0-0.2 0.1-0.3-0.1-0.4-2-0.7-4.1-1-6.1-0.3-2.5 0.9-3.8 3.6-2.6 5.7 0.9 1.6 2.6 2.1 4.2 2.7 0.5 0.3 1.2 0.5 1.2 1.3 0 0.7-0.6 1-1.3 1.1-1.4 0.2-2.6-0.3-3.8-0.8-0.3-0.2-0.4-0.1-0.5 0.2q-0.2 0.9-0.4 1.8c-0.1 0.4-0.4 0.9 0.4 1.1 1.2 0.4 2.4 0.7 3.8 0.6 0.8 0.1 1.6-0.1 2.4-0.2z"/>
			<path id="Layer" class="s0" d="m724.6 610q0-1.1 0-2.3c0-0.3 0-0.6 0.4-0.6 1.2 0 2.4-0.2 3.4 0.5 1 0.5 1.3 1.5 1.2 2.6-0.1 1.4-1.1 2.2-2.5 2.5q-1.1 0.3-2.3 0.1c-0.2 0-0.2-0.2-0.2-0.3q0-1.3 0-2.6z"/>
		</g>
		<g id="ps-6">
			<path id="Layer" fill-rule="evenodd" class="s0" d="m84.5 629.3q-0.2-0.1-0.4-0.1-14.3 0-28.7 0-0.2 0-0.4 0.1h-0.5q-1.3-0.4-1.7-1.7v-30.6q0.6-1.6 2.2-1.6 14.6 0 29.1 0c1.7 0 2.7 0.6 2.7 2.6q-0.1 14.3 0 28.7c0 1.3-0.5 2.2-1.8 2.6zm-26.2-17.9q0 4.5 0 9c0 0.2 0.1 0.3 0.3 0.3q1.8 0 3.6 0c0.3 0 0.3-0.1 0.3-0.3q0-3 0-6c0-0.3 0.1-0.4 0.4-0.3 0.8 0.1 1.7 0 2.6-0.1 3-0.3 5.8-2.1 6.2-5.4 0.3-2.7-1.4-5.6-4-6.3-2.7-0.6-5.4-0.4-8.1-0.2-0.4 0-1.2-0.4-1.2 0.6q0 4.4 0 8.7zm18 9.5q0 0 0 0 0 0 0 0zm2.3-0.2c2.9-0.5 4.5-4 2.8-6.4-0.9-1.3-2.5-1.6-3.8-2.2-0.7-0.3-1.5-0.5-1.3-1.4 0.1-0.7 0.7-0.9 1.2-0.9 0.8-0.1 1.5 0.2 2.2 0.2 0.4 0.1 0.8 1 1.2 0.1 0.2-0.7 0.4-1.5 0.6-2.2 0-0.2 0.1-0.3-0.2-0.4-2-0.7-4-1-6.1-0.3-2.5 0.9-3.8 3.6-2.6 5.7 0.9 1.6 2.6 2.1 4.2 2.8 0.6 0.2 1.3 0.4 1.2 1.2 0 0.7-0.5 1-1.2 1.1-1.4 0.2-2.7-0.3-3.9-0.8-0.3-0.2-0.4-0.1-0.4 0.2q-0.2 0.9-0.5 1.8c-0.1 0.4-0.3 0.9 0.4 1.1 1.3 0.4 2.5 0.7 3.8 0.6 0.8 0.1 1.6-0.1 2.4-0.2z"/>
			<path id="Layer" class="s0" d="m62.6 608q0-1.1 0-2.3c0-0.3 0-0.6 0.4-0.6 1.2 0 2.4-0.2 3.4 0.5 1 0.5 1.3 1.5 1.2 2.6-0.2 1.4-1.1 2.2-2.5 2.5q-1.1 0.3-2.3 0.1c-0.2 0-0.2-0.2-0.2-0.3q0-1.3 0-2.6z"/>
		</g>
		<path id="js" fill-rule="evenodd" class="s0" d="m40.1 96.9q0 16.1 0 32.2c0 0.2 0 0.2-0.3 0.2q-16.1 0-32.2 0 0-16 0-32.1c0-0.2 0.1-0.3 0.4-0.3q16 0 32.1 0zm-7.3 29.9c0.1 0 0.4 0 0.7-0.1 3.2-0.1 5.1-3.7 3.5-6.4-1-1.7-2.9-2.3-4.6-3-1.3-0.5-1.9-1.5-1.3-2.4 0.6-1 2.2-0.7 3 0.4 0.1 0.1 0.2 0.3 0.4 0.2q1-0.7 2-1.4c0.1 0 0.1-0.1 0.1-0.2-1.3-2.2-4.4-2.9-6.8-1.6-2.5 1.2-2.5 5.2-0.3 6.8 1.2 0.9 2.7 1.3 4 2.1 0.6 0.3 1 0.7 1 1.4 0 0.6-0.4 1-0.9 1.3-1.4 0.6-2.9 0.1-3.8-1.1-0.2-0.3-0.3-0.7-0.8-0.4q-0.8 0.6-1.7 1.1c-0.4 0.1-0.3 0.3-0.1 0.6 1.2 1.9 3.1 2.7 5.6 2.7zm-7.5-9.4c0-2 0-3.7 0-5.3 0-0.2 0-0.3-0.3-0.3q-1.3 0-2.6 0c-0.1 0-0.2-0.1-0.2 0.1q0.1 5 0.1 10c0 0.8 0 1.7-1 2.1-0.7 0.2-1.6 0.2-2-0.6-0.6-1.2-1.3-0.6-1.9-0.2q-0.5 0.3-0.9 0.6c-0.3 0.1-0.3 0.2-0.2 0.5 1.2 2 2.9 2.6 5.1 2.5 2-0.2 3.4-1.5 3.7-3.2 0.4-2.2 0.1-4.4 0.2-6.2z"/>
		<path id="js-2" fill-rule="evenodd" class="s0" d="m-72.2 505.6q0 8.2 0 16.3c0 0.1 0 0.1-0.1 0.1q-8.1 0-16.3 0 0-8.1 0-16.2c0-0.1 0.1-0.2 0.2-0.2q8.1 0 16.2 0zm-3.6 15.2c0 0 0.2-0.1 0.4-0.1 1.5-0.1 2.5-1.9 1.7-3.2-0.5-0.9-1.5-1.2-2.3-1.5-0.7-0.3-1-0.8-0.7-1.3 0.3-0.5 1.2-0.3 1.5 0.2 0.1 0.1 0.1 0.2 0.2 0.1q0.5-0.3 1.1-0.6c0-0.1 0-0.1 0-0.2-0.6-1.1-2.2-1.4-3.4-0.8-1.3 0.7-1.3 2.7-0.2 3.5 0.6 0.4 1.4 0.7 2 1 0.3 0.2 0.6 0.4 0.5 0.7 0 0.4-0.2 0.6-0.4 0.7-0.7 0.3-1.5 0-1.9-0.6-0.1-0.1-0.2-0.3-0.4-0.1q-0.5 0.2-0.9 0.5c-0.2 0.1-0.2 0.2-0.1 0.3 0.7 1 1.6 1.4 2.9 1.4zm-3.8-4.8c0-1 0-1.8 0-2.7 0-0.1 0-0.1-0.2-0.1q-0.6 0-1.3 0c0 0-0.1-0.1-0.1 0 0 1.7 0.1 3.4 0 5.1 0 0.4 0.1 0.8-0.4 1-0.4 0.2-0.8 0.1-1-0.3-0.4-0.6-0.7-0.3-1 0q-0.3 0.1-0.5 0.2c-0.1 0.1-0.1 0.2 0 0.3 0.5 1 1.4 1.3 2.5 1.2 1 0 1.8-0.7 1.9-1.6 0.2-1.1 0.1-2.2 0.1-3.1z"/>
		<path id="js-3" fill-rule="evenodd" class="s0" d="m607.1 545.3q0 16.1 0 32.2c0 0.2-0.1 0.3-0.3 0.3q-16.1 0-32.2 0 0-16.1 0-32.1c0-0.3 0.1-0.4 0.4-0.4q16 0 32.1 0zm-7.3 29.9c0.1 0 0.4 0 0.7-0.1 3.2-0.1 5.1-3.7 3.5-6.4-1-1.7-2.9-2.3-4.6-3-1.3-0.5-1.9-1.5-1.3-2.4 0.6-1 2.2-0.7 3 0.4 0.1 0.1 0.2 0.3 0.4 0.2q1-0.7 2-1.4c0.1 0 0.1-0.1 0.1-0.2-1.3-2.2-4.4-2.9-6.8-1.6-2.5 1.2-2.5 5.2-0.3 6.8 1.2 0.9 2.7 1.3 4 2.1 0.6 0.3 1 0.7 1 1.4 0 0.6-0.4 1-1 1.3-1.3 0.6-2.8 0.1-3.7-1.1-0.2-0.3-0.3-0.7-0.8-0.4q-0.8 0.6-1.7 1.1c-0.4 0.1-0.3 0.3-0.2 0.6 1.3 1.9 3.2 2.7 5.7 2.7zm-7.5-9.4c0-2 0-3.7 0-5.3 0-0.2-0.1-0.3-0.3-0.3q-1.3 0-2.6 0c-0.1 0-0.2-0.1-0.2 0.1q0 5 0 10c0 0.8 0.1 1.7-0.9 2.1-0.8 0.2-1.6 0.2-2-0.6-0.7-1.2-1.3-0.6-2-0.1q-0.4 0.2-0.9 0.5c-0.2 0.1-0.2 0.2-0.1 0.5 1.1 2 2.9 2.7 5.1 2.5 2-0.2 3.4-1.5 3.7-3.2 0.4-2.2 0.1-4.4 0.2-6.2z"/>
		<path id="js-4" fill-rule="evenodd" class="s0" d="m348.1 603.4q0 16.1 0 32.2c0 0.2 0 0.3-0.3 0.3q-16.1 0-32.2 0 0-16.1 0-32.1c0-0.3 0.1-0.4 0.4-0.4q16.1 0 32.1 0zm-7.3 29.9c0.1 0 0.4 0 0.8-0.1 3.1-0.1 5-3.7 3.4-6.4-1-1.7-2.9-2.3-4.6-3-1.3-0.5-1.9-1.5-1.3-2.4 0.6-1 2.3-0.7 3 0.4 0.1 0.1 0.2 0.3 0.4 0.2q1-0.7 2-1.4c0.2 0 0.2-0.1 0.1-0.2-1.2-2.2-4.3-2.9-6.8-1.6-2.5 1.2-2.5 5.2-0.3 6.8 1.3 0.9 2.7 1.3 4 2.1 0.6 0.3 1.1 0.7 1 1.4 0 0.6-0.4 1-0.9 1.3-1.4 0.6-2.9 0.1-3.8-1.1-0.2-0.3-0.3-0.7-0.8-0.4q-0.8 0.6-1.7 1.1c-0.3 0.1-0.3 0.3-0.1 0.6 1.3 1.9 3.1 2.7 5.6 2.7zm-7.5-9.4c0-2 0-3.7 0-5.3 0-0.2 0-0.3-0.3-0.3q-1.3 0-2.5 0c-0.1 0-0.3-0.1-0.3 0.1q0.1 5 0.1 10c0 0.8 0 1.7-1 2.1-0.7 0.2-1.6 0.2-2-0.6-0.6-1.2-1.2-0.6-1.9-0.1q-0.5 0.2-0.9 0.5c-0.3 0.1-0.3 0.2-0.2 0.5 1.2 2 3 2.7 5.1 2.5 2-0.2 3.5-1.5 3.8-3.2 0.3-2.2 0-4.4 0.1-6.2z"/>
		<path id="js-5" fill-rule="evenodd" class="s0" d="m501.3 245.9q0 16.1 0 32.2c0 0.2 0 0.2-0.3 0.2q-16.1 0-32.2 0 0-16 0-32.1c0-0.3 0.1-0.3 0.4-0.3q16.1 0 32.1 0zm-7.3 29.9c0.1 0 0.4-0.1 0.8-0.1 3.1-0.2 5-3.7 3.4-6.4-1-1.8-2.9-2.3-4.6-3-1.3-0.6-1.9-1.6-1.3-2.5 0.6-0.9 2.3-0.7 3 0.4 0.1 0.2 0.2 0.4 0.4 0.2q1-0.7 2-1.3c0.2-0.1 0.2-0.1 0.1-0.2-1.2-2.3-4.3-2.9-6.8-1.7-2.5 1.3-2.5 5.2-0.3 6.8 1.3 0.9 2.7 1.4 4 2.1 0.6 0.3 1.1 0.8 1 1.5 0 0.6-0.4 1-0.9 1.2-1.4 0.6-2.9 0.1-3.8-1.1-0.2-0.2-0.3-0.7-0.8-0.3q-0.8 0.6-1.7 1c-0.3 0.2-0.3 0.4-0.1 0.6 1.3 2 3.1 2.8 5.6 2.7zm-7.5-9.3c0-2.1 0-3.7 0-5.4 0-0.2 0-0.3-0.3-0.3-0.8 0-1.7 0-2.5 0-0.1 0-0.3 0-0.3 0.1q0.1 5 0.1 10c0 0.8 0 1.8-1 2.1-0.7 0.3-1.6 0.2-2-0.5-0.6-1.3-1.2-0.6-1.9-0.2q-0.5 0.3-0.9 0.6c-0.3 0.1-0.3 0.2-0.2 0.4 1.2 2 3 2.7 5.1 2.5 2-0.1 3.4-1.4 3.7-3.2 0.4-2.1 0.1-4.3 0.2-6.1z"/>
		<path id="js-6" fill-rule="evenodd" class="s0" d="m414.9 28.2q0 16.1 0 32.2c0 0.2 0 0.2-0.2 0.2q-16.1 0-32.2 0 0-16 0-32.1c0-0.3 0-0.3 0.3-0.3q16.1 0 32.1 0zm-7.3 29.9c0.1 0 0.4-0.1 0.8-0.1 3.1-0.2 5-3.7 3.4-6.4-1-1.7-2.9-2.3-4.6-3-1.3-0.6-1.9-1.6-1.3-2.5 0.6-0.9 2.3-0.6 3 0.5 0.1 0.1 0.2 0.3 0.4 0.1q1-0.6 2-1.3c0.2-0.1 0.2-0.1 0.1-0.2-1.2-2.2-4.3-2.9-6.8-1.7-2.5 1.3-2.5 5.3-0.3 6.9 1.3 0.9 2.7 1.3 4 2 0.6 0.3 1.1 0.8 1 1.5 0 0.6-0.4 1-0.9 1.3-1.3 0.5-2.9 0.1-3.8-1.1-0.1-0.3-0.3-0.7-0.8-0.4q-0.8 0.6-1.7 1c-0.3 0.2-0.3 0.4-0.1 0.7 1.3 1.9 3.1 2.7 5.6 2.7zm-7.4-9.4c0-2 0-3.7 0-5.3 0-0.3-0.1-0.4-0.4-0.4q-1.3 0.1-2.5 0c-0.1 0-0.3 0-0.3 0.2q0.1 5 0.1 10c0 0.8 0 1.7-0.9 2-0.8 0.3-1.7 0.3-2.1-0.5-0.6-1.2-1.2-0.6-1.9-0.2q-0.5 0.3-0.9 0.6c-0.2 0.1-0.3 0.2-0.1 0.5 1.1 2 2.9 2.6 5 2.5 2-0.2 3.5-1.5 3.8-3.2 0.3-2.2 0-4.4 0.1-6.2z"/>
	</g>
</svg>